<svg width="42" height="29" viewBox="0 0 42 29" fill="none" xmlns="http://www.w3.org/2000/svg">
<path d="M8.16547 7.16494L0.730469 11.2849V6.11494L9.34047 0.739944H14.2955V27.9999H8.16547V7.16494ZM31.1405 28.4199C29.9105 28.4199 28.9005 28.3749 28.1205 28.2949C27.2534 28.1948 26.3957 28.026 25.5555 27.7899C24.7111 27.5658 23.9238 27.1654 23.2455 26.6149C22.5894 25.9798 22.0866 25.2035 21.7755 24.3449C21.3286 23.2528 21.1141 22.0796 21.1455 20.8999V7.83994C21.1455 6.54994 21.3455 5.41494 21.7355 4.43994C22.0566 3.5637 22.573 2.77205 23.2455 2.12495C23.7805 1.64995 24.5055 1.27494 25.4305 0.994943C26.3279 0.691843 27.2574 0.493854 28.2005 0.404943C29.2655 0.349943 30.2505 0.319946 31.1405 0.319946C32.4005 0.319946 33.4105 0.364944 34.1655 0.444944C35.0211 0.522579 35.866 0.691883 36.6855 0.949944C37.6955 1.25994 38.4905 1.66495 39.0805 2.16995C39.6705 2.66995 40.1705 3.39994 40.5905 4.35494C41.0105 5.30494 41.2205 6.46494 41.2205 7.83994V20.8999C41.2205 22.1899 41.0105 23.3249 40.5905 24.2999C40.2764 25.1667 39.7585 25.9453 39.0805 26.5699C38.3957 27.1104 37.6106 27.5098 36.7705 27.7449C35.8205 28.0549 34.9105 28.2349 34.0405 28.2949C33.0766 28.3869 32.1086 28.4286 31.1405 28.4199ZM31.2255 24.4699C32.4005 24.4699 33.2405 24.3999 33.7455 24.2599C33.9695 24.1995 34.1769 24.0888 34.3519 23.9364C34.5269 23.7839 34.6649 23.5936 34.7555 23.3799C34.9205 22.9599 35.0055 22.2749 35.0055 21.3199V7.41995C35.0055 6.46995 34.9205 5.77994 34.7555 5.35994C34.6679 5.14847 34.5302 4.96149 34.3543 4.81514C34.1783 4.66879 33.9693 4.56748 33.7455 4.51995C33.2455 4.35495 32.4005 4.26995 31.2255 4.26995C30.0255 4.26995 29.1555 4.35495 28.6255 4.51995C28.4016 4.56748 28.1926 4.66879 28.0167 4.81514C27.8407 4.96149 27.703 5.14847 27.6155 5.35994C27.4455 5.77994 27.3655 6.46495 27.3655 7.41995V21.3199C27.3655 22.2699 27.4455 22.9599 27.6155 23.3799C27.7805 23.7999 28.1155 24.0949 28.6205 24.2599C29.1555 24.3999 30.0205 24.4699 31.2255 24.4699Z" fill="#979797"/>
</svg>
