<svg width="22" height="22" viewBox="0 0 22 22" fill="none" xmlns="http://www.w3.org/2000/svg">
<path d="M11 21.5C16.799 21.5 21.5 16.799 21.5 11C21.5 5.20101 16.799 0.5 11 0.5C5.20101 0.5 0.5 5.20101 0.5 11C0.5 16.799 5.20101 21.5 11 21.5Z" fill="#1F1F22" stroke="url(#paint0_linear_789_1301)"/>
<path fill-rule="evenodd" clip-rule="evenodd" d="M14.905 15.5558C15.8359 14.758 16.5 13.6942 16.808 12.5076C17.116 11.3209 17.0531 10.0684 16.6278 8.91858C16.2024 7.76875 15.4351 6.77682 14.429 6.07626C13.4229 5.3757 12.2264 5.00015 11.0004 5.00015C9.77446 5.00015 8.57791 5.3757 7.57182 6.07626C6.56574 6.77682 5.7984 7.76875 5.37307 8.91858C4.94775 10.0684 4.88486 11.3209 5.19286 12.5076C5.50087 13.6942 6.16499 14.758 7.09584 15.5558L5.79334 17.0742C4.91632 16.3238 4.21243 15.3922 3.7302 14.3436C3.24796 13.2949 2.99884 12.1542 3 11C3 8.87827 3.84286 6.84344 5.34315 5.34315C6.84344 3.84285 8.87827 3 11 3C12.0506 3 13.0909 3.20693 14.0615 3.60896C15.0321 4.011 15.914 4.60028 16.6569 5.34315C17.3997 6.08601 17.989 6.96793 18.391 7.93853C18.7931 8.90914 19 9.94943 19 11C19.0013 12.1543 18.7522 13.2952 18.27 14.344C17.7877 15.3928 17.0838 16.3246 16.2067 17.075L14.905 15.5558Z" fill="#CDCDCD" fill-opacity="0.1"/>
<path fill-rule="evenodd" clip-rule="evenodd" d="M14.905 15.5558C15.8359 14.758 16.5 13.6942 16.808 12.5076C17.116 11.3209 17.0531 10.0684 16.6278 8.91858C16.2024 7.76875 15.4351 6.77682 14.429 6.07626C13.4229 5.3757 12.2264 5.00015 11.0004 5.00015C9.77446 5.00015 8.57791 5.3757 7.57182 6.07626C6.56574 6.77682 5.7984 7.76875 5.37307 8.91858C4.94775 10.0684 4.88486 11.3209 5.19286 12.5076C5.50087 13.6942 6.16499 14.758 7.09584 15.5558L5.79334 17.0742C4.91632 16.3238 4.21243 15.3922 3.7302 14.3436C3.24796 13.2949 2.99884 12.1542 3 11C3 8.87827 3.84286 6.84344 5.34315 5.34315C6.84344 3.84285 8.87827 3 11 3C12.0506 3 13.0909 3.20693 14.0615 3.60896C15.0321 4.011 15.914 4.60028 16.6569 5.34315C17.3997 6.08601 17.989 6.96793 18.391 7.93853C18.7931 8.90914 19 9.94943 19 11C19.0013 12.1543 18.7522 13.2952 18.27 14.344C17.7877 15.3928 17.0838 16.3246 16.2067 17.075L14.905 15.5558Z" fill="#FE1F00"/>
<path d="M8.69424 9.52755L7.45508 10.2142V9.35255L8.89008 8.45672H9.71591V13.0001H8.69424V9.52755ZM12.5234 13.0701C12.3184 13.0701 12.1501 13.0626 12.0201 13.0492C11.8756 13.0325 11.7326 13.0044 11.5926 12.9651C11.4519 12.9277 11.3206 12.861 11.2076 12.7692C11.0982 12.6634 11.0144 12.534 10.9626 12.3909C10.8881 12.2089 10.8523 12.0133 10.8576 11.8167V9.64005C10.8576 9.42505 10.8909 9.23588 10.9559 9.07338C11.0094 8.92734 11.0955 8.7954 11.2076 8.68755C11.2967 8.60839 11.4176 8.54588 11.5717 8.49922C11.7213 8.4487 11.8762 8.4157 12.0334 8.40088C12.2109 8.39172 12.3751 8.38672 12.5234 8.38672C12.7334 8.38672 12.9017 8.39422 13.0276 8.40755C13.1702 8.42049 13.311 8.44871 13.4476 8.49172C13.6159 8.54338 13.7484 8.61089 13.8467 8.69505C13.9451 8.77839 14.0284 8.90005 14.0984 9.05922C14.1684 9.21755 14.2034 9.41089 14.2034 9.64005V11.8167C14.2034 12.0317 14.1684 12.2209 14.0984 12.3834C14.0461 12.5278 13.9598 12.6576 13.8467 12.7617C13.7326 12.8518 13.6018 12.9184 13.4617 12.9576C13.3034 13.0092 13.1517 13.0392 13.0067 13.0492C12.8461 13.0645 12.6848 13.0715 12.5234 13.0701ZM12.5376 12.4117C12.7334 12.4117 12.8734 12.4001 12.9576 12.3767C12.9949 12.3666 13.0295 12.3482 13.0586 12.3228C13.0878 12.2974 13.1108 12.2657 13.1259 12.2301C13.1534 12.1601 13.1676 12.0459 13.1676 11.8867V9.57005C13.1676 9.41172 13.1534 9.29672 13.1259 9.22672C13.1113 9.19147 13.0884 9.16031 13.059 9.13592C13.0297 9.11153 12.9949 9.09464 12.9576 9.08672C12.8742 9.05922 12.7334 9.04505 12.5376 9.04505C12.3376 9.04505 12.1926 9.05922 12.1042 9.08672C12.0669 9.09464 12.0321 9.11153 12.0028 9.13592C11.9734 9.16031 11.9505 9.19147 11.9359 9.22672C11.9076 9.29672 11.8942 9.41089 11.8942 9.57005V11.8867C11.8942 12.0451 11.9076 12.1601 11.9359 12.2301C11.9634 12.3001 12.0192 12.3492 12.1034 12.3767C12.1926 12.4001 12.3367 12.4117 12.5376 12.4117Z" fill="#FE1F00"/>
<defs>
<linearGradient id="paint0_linear_789_1301" x1="2" y1="4.39286" x2="20.8667" y2="5.77677" gradientUnits="userSpaceOnUse">
<stop stop-color="#FF3D00"/>
<stop offset="1" stop-color="#FF3C3C"/>
</linearGradient>
</defs>
</svg>
