<svg width="96" height="85" viewBox="0 0 96 85" fill="none" xmlns="http://www.w3.org/2000/svg">
<path fill-rule="evenodd" clip-rule="evenodd" d="M80.585 63.33C83.441 57.2602 84.5443 50.5132 83.7704 43.8499C82.9966 37.1866 80.3764 30.8721 76.2053 25.6184C72.0342 20.3647 66.4783 16.381 60.164 14.1164C53.8497 11.8518 47.0283 11.3965 40.469 12.8018C33.9098 14.2071 27.8736 17.4171 23.0414 22.0698C18.2091 26.7225 14.7729 32.6329 13.1203 39.1342C11.4677 45.6356 11.6645 52.4693 13.6885 58.8648C15.7124 65.2603 19.483 70.9631 24.575 75.33L16.755 84.45C11.4932 79.9469 7.27044 74.3562 4.37787 68.0635C1.48529 61.7708 -0.00830465 54.9257 3.473e-05 48C3.473e-05 35.2696 5.05716 23.0606 14.0589 14.0589C23.0607 5.05713 35.2696 0 48 0C54.3035 0 60.5452 1.24156 66.3688 3.65378C72.1925 6.06601 77.4839 9.60166 81.9412 14.0589C86.3984 18.5161 89.934 23.8076 92.3463 29.6312C94.7585 35.4548 96 41.6966 96 48C96.013 55.0675 94.459 62.05 91.45 68.445L80.585 63.33Z" fill="#FF6309"/>
</svg>
