<svg width="14" height="14" viewBox="0 0 14 14" fill="none" xmlns="http://www.w3.org/2000/svg">
<path fill-rule="evenodd" clip-rule="evenodd" d="M6.99992 0.333328C7.22575 0.333328 7.43284 0.471441 7.53728 0.691691L9.2654 4.33627L13.1436 4.92637C13.3758 4.96171 13.5687 5.14128 13.6388 5.38742C13.709 5.63356 13.6437 5.90211 13.4713 6.07693L10.686 8.90107L11.3417 12.8811C11.3826 13.1293 11.2927 13.3816 11.1093 13.5331C10.926 13.6845 10.6806 13.7092 10.4753 13.5968L6.99992 11.6942L3.52451 13.5968C3.31923 13.7092 3.07388 13.6845 2.89053 13.5331C2.70718 13.3816 2.61724 13.1293 2.65813 12.8811L3.31386 8.90107L0.528569 6.07693C0.356151 5.90211 0.290885 5.63356 0.360995 5.38742C0.431105 5.14128 0.624007 4.96171 0.856288 4.92637L4.73444 4.33627L6.46256 0.691691C6.567 0.471441 6.77409 0.333328 6.99992 0.333328ZM6.99992 2.44157L5.66455 5.25782C5.57384 5.44914 5.40455 5.58033 5.21024 5.6099L2.29401 6.05363L4.38039 8.16911C4.53295 8.3238 4.60297 8.5536 4.56597 8.77818L4.06632 11.8109L6.72989 10.3527C6.89996 10.2596 7.09988 10.2596 7.26995 10.3527L9.93352 11.8109L9.43387 8.77818C9.39687 8.5536 9.46689 8.3238 9.61945 8.16911L11.7058 6.05363L8.7896 5.6099C8.59529 5.58033 8.426 5.44914 8.33528 5.25782L6.99992 2.44157Z" fill="url(#paint0_linear_501_3532)"/>
<defs>
<linearGradient id="paint0_linear_501_3532" x1="0.999918" y1="2.59524" x2="13.5777" y2="3.51784" gradientUnits="userSpaceOnUse">
<stop stop-color="#FF3D00"/>
<stop offset="1" stop-color="#FF3C3C"/>
</linearGradient>
</defs>
</svg>
