<svg width="104" height="104" viewBox="0 0 104 104" fill="none" xmlns="http://www.w3.org/2000/svg">
<path d="M92.9165 52C92.9165 74.5976 74.5975 92.9167 51.9998 92.9167C29.4022 92.9167 11.0832 74.5976 11.0832 52C11.0832 29.4023 29.4022 11.0833 51.9998 11.0833C74.5975 11.0833 92.9165 29.4023 92.9165 52ZM51.9998 95.5833C76.0702 95.5833 95.5832 76.0704 95.5832 52C95.5832 27.9296 76.0702 8.41666 51.9998 8.41666C27.9294 8.41666 8.4165 27.9296 8.4165 52C8.4165 76.0704 27.9294 95.5833 51.9998 95.5833Z" fill="url(#paint0_linear_630_270)" stroke="url(#paint1_linear_630_270)" stroke-width="0.5"/>
<path d="M52.0444 73.6667C49.7141 73.6667 47.5911 73.2816 45.6756 72.5114C43.76 71.7215 42.1209 70.5761 40.7582 69.0752C39.4154 67.5743 38.4279 65.7575 37.796 63.6247L40.3731 62.7952C40.9063 64.5726 41.7259 66.0932 42.8318 67.3571C43.9575 68.6012 45.3003 69.5491 46.8604 70.2008C48.4403 70.8525 50.1782 71.1784 52.074 71.1784C54.4043 71.1784 56.4285 70.7143 58.1466 69.7861C59.8647 68.8382 61.1779 67.5447 62.0864 65.9056C63.0145 64.2467 63.4786 62.3608 63.4786 60.2477C63.4786 58.1346 63.0343 56.2586 62.1456 54.6195C61.2767 52.9606 60.0227 51.6671 58.3836 50.7389C56.7445 49.8108 54.8289 49.3467 52.6368 49.3467C51.3334 49.3467 50.03 49.5145 48.7267 49.8503C47.443 50.1662 46.2384 50.6204 45.1127 51.2129C44.0068 51.8053 43.049 52.5064 42.2394 53.3161L39.4845 52.2497L42.2394 31.3066H63.9229V33.8245H44.3425L41.8839 52.7236L41.1433 51.598C42.2887 50.5316 43.4736 49.6528 44.698 48.9616C45.9422 48.2506 47.2357 47.7273 48.5785 47.3916C49.9412 47.0559 51.3631 46.888 52.8442 46.888C55.6089 46.888 57.9985 47.4508 60.0128 48.5765C62.0271 49.7021 63.5576 51.2623 64.6043 53.2568C65.6707 55.2514 66.2039 57.5323 66.2039 60.0996C66.2039 62.7656 65.6213 65.1255 64.4562 67.1794C63.3108 69.2332 61.6618 70.8328 59.5092 71.9782C57.3764 73.1038 54.8881 73.6667 52.0444 73.6667Z" fill="url(#paint2_linear_630_270)"/>
<path fill-rule="evenodd" clip-rule="evenodd" d="M45.2714 73.5165L45.2625 73.5129C43.202 72.6632 41.4291 71.4257 39.9562 69.8034L39.9509 69.7976C38.4904 68.1653 37.4299 66.2026 36.7573 63.9324C36.5901 63.3682 36.9039 62.7737 37.4641 62.5934L40.0413 61.764C40.3183 61.6748 40.6196 61.7009 40.8772 61.8363C41.1349 61.9718 41.3272 62.2052 41.4108 62.4839C41.9032 64.1253 42.6505 65.5027 43.6412 66.6369C44.6572 67.758 45.8652 68.6107 47.2756 69.2002C48.7103 69.7917 50.3052 70.095 52.074 70.095C54.2573 70.095 56.0964 69.6614 57.6277 68.8351C59.174 67.981 60.3347 66.8314 61.1388 65.3804L61.1409 65.3766C61.9689 63.8969 62.3953 62.1967 62.3953 60.2477C62.3953 58.2906 61.9851 56.5963 61.1932 55.1358L61.1859 55.1222C60.4142 53.649 59.3087 52.5078 57.8497 51.6816C56.3984 50.8597 54.6727 50.43 52.6368 50.43C51.4275 50.43 50.2149 50.5856 48.9969 50.8993L48.9856 50.9022C47.7853 51.1977 46.6646 51.6207 45.6207 52.1697C44.6011 52.7164 43.7323 53.3552 43.0054 54.0821C42.7021 54.3854 42.2483 54.4812 41.8483 54.3264L39.0934 53.2599C38.6274 53.0796 38.3452 52.6038 38.4104 52.1084L41.1653 31.1653C41.2362 30.6263 41.6957 30.2233 42.2394 30.2233H63.9229C64.5213 30.2233 65.0063 30.7083 65.0063 31.3066V33.8245C65.0063 34.4228 64.5213 34.9079 63.9229 34.9079H45.2941L43.5403 48.3884C43.7465 48.2605 43.954 48.1376 44.1629 48.0196C45.4894 47.2619 46.8742 46.701 48.3158 46.3406C49.7678 45.9829 51.2805 45.8047 52.8442 45.8047C55.7573 45.8047 58.3362 46.3986 60.5413 47.6308C62.7331 48.8557 64.4149 50.5661 65.5617 52.7499C66.7215 54.9208 67.2872 57.3801 67.2872 60.0996C67.2872 62.927 66.6681 65.4744 65.4003 67.7106C64.1496 69.9516 62.3462 71.6957 60.0181 72.9345C57.7037 74.156 55.0328 74.75 52.0444 74.75C49.5933 74.75 47.331 74.3446 45.2714 73.5165ZM64.4562 67.1794C65.6213 65.1255 66.2039 62.7656 66.2039 60.0996C66.2039 57.5323 65.6707 55.2514 64.6043 53.2568C63.5576 51.2623 62.0271 49.7021 60.0128 48.5765C57.9985 47.4508 55.6089 46.888 52.8442 46.888C51.3631 46.888 49.9412 47.0559 48.5785 47.3916C47.2357 47.7273 45.9422 48.2506 44.698 48.9616C44.2453 49.2172 43.7979 49.4984 43.356 49.8053C42.9475 50.0889 42.5436 50.3945 42.1443 50.722L44.3425 33.8245H63.9229V31.3066H42.2394L39.4845 52.2497L42.2394 53.3161C42.4037 53.1517 42.5742 52.9918 42.7508 52.8364C42.8287 52.7678 42.9078 52.7001 42.9881 52.6333C43.6222 52.1054 44.3304 51.632 45.1127 51.2129C46.2384 50.6204 47.443 50.1662 48.7267 49.8503C50.03 49.5145 51.3334 49.3467 52.6368 49.3467C54.8289 49.3467 56.7445 49.8108 58.3836 50.7389C60.0227 51.6671 61.2767 52.9606 62.1456 54.6195C63.0343 56.2586 63.4786 58.1346 63.4786 60.2477C63.4786 62.3608 63.0145 64.2467 62.0864 65.9056C61.1779 67.5447 59.8647 68.8382 58.1466 69.7861C56.4285 70.7143 54.4043 71.1784 52.074 71.1784C50.1782 71.1784 48.4403 70.8525 46.8604 70.2008C45.3003 69.5491 43.9575 68.6012 42.8318 67.3571C41.8422 66.2262 41.082 64.8897 40.5509 63.3476C40.4885 63.1663 40.4292 62.9822 40.3731 62.7952L37.796 63.6247C37.8713 63.8788 37.9517 64.1285 38.0371 64.3737C38.0697 64.4674 38.1031 64.5605 38.1372 64.6529C38.7629 66.3475 39.6366 67.8215 40.7582 69.0752C42.1209 70.5761 43.76 71.7215 45.6756 72.5114C47.5911 73.2816 49.7141 73.6667 52.0444 73.6667C54.8881 73.6667 57.3764 73.1038 59.5092 71.9782C61.6618 70.8328 63.3108 69.2332 64.4562 67.1794Z" fill="url(#paint3_linear_630_270)"/>
<defs>
<linearGradient id="paint0_linear_630_270" x1="12.9998" y1="23.3691" x2="94.7553" y2="29.366" gradientUnits="userSpaceOnUse">
<stop stop-color="#FF3D00"/>
<stop offset="1" stop-color="#FF3C3C"/>
</linearGradient>
<linearGradient id="paint1_linear_630_270" x1="12.9998" y1="23.3691" x2="94.7553" y2="29.366" gradientUnits="userSpaceOnUse">
<stop stop-color="#FF3D00"/>
<stop offset="1" stop-color="#FF3C3C"/>
</linearGradient>
<linearGradient id="paint2_linear_630_270" x1="38.2411" y1="37.7769" x2="67.1652" y2="39.2338" gradientUnits="userSpaceOnUse">
<stop stop-color="#FF3D00"/>
<stop offset="1" stop-color="#FF3C3C"/>
</linearGradient>
<linearGradient id="paint3_linear_630_270" x1="38.2411" y1="37.7769" x2="67.1652" y2="39.2338" gradientUnits="userSpaceOnUse">
<stop stop-color="#FF3D00"/>
<stop offset="1" stop-color="#FF3C3C"/>
</linearGradient>
</defs>
</svg>
