<svg width="22" height="22" viewBox="0 0 22 22" fill="none" xmlns="http://www.w3.org/2000/svg">
<path d="M11 21.5C16.799 21.5 21.5 16.799 21.5 11C21.5 5.20101 16.799 0.5 11 0.5C5.20101 0.5 0.5 5.20101 0.5 11C0.5 16.799 5.20101 21.5 11 21.5Z" fill="#1F1F22" stroke="url(#paint0_linear_789_1255)"/>
<path fill-rule="evenodd" clip-rule="evenodd" d="M14.905 15.5558C15.8359 14.758 16.5 13.6942 16.808 12.5076C17.116 11.3209 17.0531 10.0684 16.6278 8.91858C16.2024 7.76875 15.4351 6.77682 14.429 6.07626C13.4229 5.3757 12.2264 5.00015 11.0004 5.00015C9.77446 5.00015 8.57791 5.3757 7.57182 6.07626C6.56574 6.77682 5.7984 7.76875 5.37307 8.91858C4.94775 10.0684 4.88486 11.3209 5.19286 12.5076C5.50087 13.6942 6.16499 14.758 7.09584 15.5558L5.79334 17.0742C4.91632 16.3238 4.21243 15.3922 3.7302 14.3436C3.24796 13.2949 2.99884 12.1542 3 11C3 8.87827 3.84286 6.84344 5.34315 5.34315C6.84344 3.84285 8.87827 3 11 3C12.0506 3 13.0909 3.20693 14.0615 3.60896C15.0321 4.011 15.914 4.60028 16.6569 5.34315C17.3997 6.08601 17.989 6.96793 18.391 7.93853C18.7931 8.90914 19 9.94943 19 11C19.0013 12.1543 18.7522 13.2952 18.27 14.344C17.7877 15.3928 17.0838 16.3246 16.2067 17.075L14.905 15.5558Z" fill="#CDCDCD" fill-opacity="0.1"/>
<path fill-rule="evenodd" clip-rule="evenodd" d="M6.75834 6.75836L5.34251 5.34253C4.59857 6.08471 4.00865 6.96659 3.60664 7.9375C3.20463 8.9084 2.99847 9.94919 3.00001 11C2.99884 12.1542 3.24796 13.295 3.7302 14.3436C4.21244 15.3922 4.91632 16.3238 5.79334 17.0742L7.09501 15.5559C6.43733 14.993 5.90952 14.2943 5.54799 13.5078C5.18645 12.7212 4.99978 11.8657 5.00084 11C5.00084 9.34336 5.67167 7.84336 6.75751 6.75836H6.75834Z" fill="#FFC800"/>
<path d="M11.2523 12.0835H9.15234V11.2776L11.0215 8.45679H12.1765V11.3485H12.6665V12.0826H12.1765V12.9993H11.2523V12.0826V12.0835ZM11.2523 11.3476V9.42262L10.0273 11.3476H11.2523Z" fill="#FFC800"/>
<defs>
<linearGradient id="paint0_linear_789_1255" x1="2" y1="4.39286" x2="20.8667" y2="5.77677" gradientUnits="userSpaceOnUse">
<stop stop-color="#FF3D00"/>
<stop offset="1" stop-color="#FF3C3C"/>
</linearGradient>
</defs>
</svg>
