<svg width="48" height="48" viewBox="0 0 48 48" fill="none" xmlns="http://www.w3.org/2000/svg">
<path d="M42.75 24C42.75 34.3553 34.3553 42.75 24 42.75C13.6447 42.75 5.25 34.3553 5.25 24C5.25 13.6447 13.6447 5.25 24 5.25C34.3553 5.25 42.75 13.6447 42.75 24ZM24 44.25C35.1838 44.25 44.25 35.1838 44.25 24C44.25 12.8162 35.1838 3.75 24 3.75C12.8162 3.75 3.75 12.8162 3.75 24C3.75 35.1838 12.8162 44.25 24 44.25Z" fill="#FF3D00" stroke="url(#paint0_linear_152_1219)" stroke-width="0.5"/>
<path d="M23.5884 34.2343C22.4263 34.2343 21.357 34.039 20.3804 33.6483C19.4136 33.2577 18.5884 32.6913 17.9048 31.9491C17.2212 31.1972 16.7232 30.2987 16.4107 29.2538L17.7144 28.8437C17.9683 29.703 18.3687 30.4452 18.9156 31.0702C19.4722 31.6952 20.1509 32.1737 20.9517 32.5058C21.7623 32.8378 22.6509 33.0038 23.6177 33.0038C24.7115 33.0038 25.6783 32.7938 26.5181 32.3739C27.3677 31.954 28.022 31.3681 28.481 30.6161C28.9498 29.8642 29.1841 28.9999 29.1841 28.0233C29.1841 27.0956 28.9742 26.2851 28.5543 25.5917C28.1343 24.8886 27.5289 24.3466 26.7378 23.9657C25.9566 23.5849 25.0289 23.3944 23.9546 23.3944C23.4273 23.3944 22.8902 23.4433 22.3433 23.5409C21.8062 23.6288 21.3033 23.7509 20.8345 23.9071L20.0875 22.7499L28.3199 14.5321H16.5572V13.287H29.9751V14.6054L21.1275 23.3358L20.7759 22.8524C22.5533 22.2665 24.189 22.1054 25.6832 22.369C27.1773 22.6327 28.3589 23.2626 29.2281 24.2587C30.107 25.245 30.5464 26.4901 30.5464 27.994C30.5464 29.1952 30.2584 30.2694 29.6822 31.2167C29.106 32.164 28.2906 32.9062 27.2359 33.4433C26.191 33.9706 24.9751 34.2343 23.5884 34.2343Z" fill="#FF3D00"/>
<path fill-rule="evenodd" clip-rule="evenodd" d="M20.1576 34.2054L20.1557 34.2047C19.1093 33.7819 18.2093 33.1654 17.4635 32.3556L17.4609 32.3527C16.7125 31.5295 16.1722 30.5503 15.8359 29.4257C15.7419 29.1114 15.9177 28.7799 16.2306 28.6815L17.5343 28.2713C17.6879 28.223 17.8544 28.2384 17.9964 28.3141C18.1385 28.3897 18.2442 28.5193 18.2898 28.6736C18.5209 29.4557 18.8809 30.1188 19.3654 30.6731C19.8591 31.2269 20.4613 31.6527 21.1803 31.951C21.9112 32.2502 22.7213 32.4038 23.6177 32.4038C24.6337 32.4038 25.506 32.2092 26.2498 31.8373L26.2523 31.836C27.0082 31.4624 27.5735 30.9512 27.9689 30.3035L27.9718 30.2987C28.3752 29.6515 28.5841 28.8995 28.5841 28.0233C28.5841 27.189 28.3964 26.4892 28.041 25.9025L28.0391 25.8993C27.6839 25.3045 27.1706 24.84 26.4776 24.5063L26.4749 24.5051C25.7926 24.1724 24.9588 23.9944 23.9546 23.9944C23.4645 23.9944 22.9627 24.0398 22.4488 24.1316L22.4402 24.1331C21.9315 24.2164 21.4599 24.3311 21.0243 24.4763C20.7645 24.5629 20.479 24.4626 20.3304 24.2326L19.5834 23.0753C19.4299 22.8377 19.4634 22.5251 19.6636 22.3253L26.8695 15.1321H16.5572C16.2258 15.1321 15.9572 14.8635 15.9572 14.5321V13.287C15.9572 12.9556 16.2258 12.687 16.5572 12.687H29.9751C30.3065 12.687 30.5751 12.9556 30.5751 13.287V14.6054C30.5751 14.7659 30.5108 14.9197 30.3966 15.0325L23.6766 21.6635C24.402 21.6205 25.1059 21.6579 25.7874 21.7782C27.3944 22.0618 28.706 22.7489 29.6781 23.8619C30.6671 24.9729 31.1464 26.3658 31.1464 27.994C31.1464 29.2957 30.8329 30.4795 30.1948 31.5285C29.5568 32.5774 28.6551 33.3938 27.5082 33.9779L27.5062 33.9789C26.3633 34.5557 25.0518 34.8343 23.5884 34.8343C22.358 34.8343 21.2121 34.6272 20.1576 34.2054ZM29.2281 24.2587C28.3589 23.2626 27.1773 22.6327 25.6832 22.369C24.8345 22.2193 23.9402 22.2066 23.0002 22.3309C22.657 22.3763 22.3078 22.4399 21.9524 22.5218L29.9751 14.6054V13.287H16.5572V14.5321H28.3199L20.0875 22.7499L20.8345 23.9071C20.8539 23.9007 20.8732 23.8943 20.8927 23.888C21.0893 23.824 21.2919 23.7659 21.5005 23.7138C21.5436 23.7031 21.587 23.6926 21.6306 23.6823C21.8611 23.6281 22.0987 23.581 22.3433 23.5409C22.8902 23.4433 23.4273 23.3944 23.9546 23.3944C25.0289 23.3944 25.9566 23.5849 26.7378 23.9657C27.5289 24.3466 28.1343 24.8886 28.5543 25.5917C28.9742 26.2851 29.1841 27.0956 29.1841 28.0233C29.1841 28.9999 28.9498 29.8642 28.481 30.6161C28.022 31.3681 27.3677 31.954 26.5181 32.3739C25.6783 32.7938 24.7115 33.0038 23.6177 33.0038C22.6509 33.0038 21.7623 32.8378 20.9517 32.5058C20.1509 32.1737 19.4722 31.6952 18.9156 31.0702C18.4178 30.5013 18.0414 29.8353 17.7863 29.0722C17.7612 28.997 17.7372 28.9208 17.7144 28.8437L16.4107 29.2538C16.4326 29.3271 16.4554 29.3996 16.4792 29.4714C16.5184 29.5902 16.5602 29.707 16.6044 29.8219C16.915 30.628 17.3484 31.3371 17.9048 31.9491C18.5884 32.6913 19.4136 33.2577 20.3804 33.6483C21.357 34.039 22.4263 34.2343 23.5884 34.2343C24.9751 34.2343 26.191 33.9706 27.2359 33.4433C28.2906 32.9062 29.106 32.164 29.6822 31.2167C30.2584 30.2694 30.5464 29.1952 30.5464 27.994C30.5464 26.4901 30.107 25.245 29.2281 24.2587Z" fill="#FF3D00"/>
<defs>
<linearGradient id="paint0_linear_152_1219" x1="6" y1="10.7857" x2="43.7333" y2="13.5535" gradientUnits="userSpaceOnUse">
<stop stop-color="#FF3D00"/>
<stop offset="1" stop-color="#FF3C3C"/>
</linearGradient>
</defs>
</svg>
