<svg width="48" height="48" viewBox="0 0 48 48" fill="none" xmlns="http://www.w3.org/2000/svg">
<path d="M42.75 24C42.75 34.3553 34.3553 42.75 24 42.75C13.6447 42.75 5.25 34.3553 5.25 24C5.25 13.6447 13.6447 5.25 24 5.25C34.3553 5.25 42.75 13.6447 42.75 24ZM24 44.25C35.1838 44.25 44.25 35.1838 44.25 24C44.25 12.8162 35.1838 3.75 24 3.75C12.8162 3.75 3.75 12.8162 3.75 24C3.75 35.1838 12.8162 44.25 24 44.25Z" fill="#FF3D00" stroke="url(#paint0_linear_695_2372)" stroke-width="0.5"/>
<path d="M17.0043 33.6191C17.0043 32.457 17.2923 31.4023 17.8685 30.4551C18.4447 29.498 19.1527 28.6582 19.9925 27.9355C20.8421 27.2129 21.9505 26.373 23.3177 25.416C24.5873 24.5273 25.598 23.7656 26.35 23.1308C27.1117 22.4863 27.7464 21.7637 28.2543 20.9629C28.7718 20.1523 29.0306 19.2783 29.0306 18.3408C29.0306 17.5205 28.8451 16.8027 28.474 16.1875C28.1029 15.5625 27.5609 15.0791 26.848 14.7373C26.1449 14.3955 25.3099 14.2246 24.3431 14.2246C23.2396 14.2246 22.2728 14.4492 21.4427 14.8984C20.6224 15.3379 19.973 15.9775 19.4945 16.8174C19.016 17.6572 18.7523 18.6631 18.7035 19.8349L17.3851 19.7324C17.4339 18.3945 17.7416 17.2178 18.308 16.2021C18.8744 15.1865 19.6752 14.4004 20.7103 13.8437C21.7552 13.2773 22.9955 12.9941 24.431 12.9941C25.7005 12.9941 26.7796 13.2187 27.6683 13.668C28.557 14.1074 29.2308 14.7275 29.6898 15.5283C30.1586 16.3291 30.3929 17.2568 30.3929 18.3115C30.3929 19.4541 30.1097 20.4892 29.5433 21.417C28.9769 22.3447 28.2787 23.1601 27.4486 23.8633C26.6283 24.5566 25.5443 25.3672 24.1966 26.2949C22.9955 27.125 22.0384 27.8281 21.3255 28.4043C20.6127 28.9805 19.9877 29.6348 19.4505 30.3672C18.9232 31.0996 18.5961 31.8955 18.4691 32.7549H30.9642V34H17.0043V33.6191Z" fill="#FF3D00"/>
<path fill-rule="evenodd" clip-rule="evenodd" d="M17.0091 33.36C17.049 32.2997 17.3355 31.3314 17.8685 30.4551C18.4447 29.498 19.1527 28.6582 19.9925 27.9355C20.8421 27.2129 21.9505 26.373 23.3177 25.416C24.5873 24.5273 25.598 23.7656 26.35 23.1308C27.1117 22.4863 27.7464 21.7637 28.2543 20.9629C28.7718 20.1523 29.0306 19.2783 29.0306 18.3408C29.0306 17.5205 28.8451 16.8027 28.474 16.1875C28.1029 15.5625 27.5609 15.0791 26.848 14.7373C26.1449 14.3955 25.3099 14.2246 24.3431 14.2246C23.2396 14.2246 22.2728 14.4492 21.4427 14.8984C20.6224 15.3379 19.973 15.9775 19.4945 16.8174C19.1049 17.5012 18.8577 18.295 18.7529 19.1989C18.729 19.4052 18.7125 19.6172 18.7035 19.8349L17.3851 19.7324C17.4339 18.3945 17.7416 17.2178 18.308 16.2021C18.8744 15.1865 19.6752 14.4004 20.7103 13.8437C21.7552 13.2773 22.9955 12.9941 24.431 12.9941C25.7005 12.9941 26.7796 13.2187 27.6683 13.668C28.557 14.1074 29.2308 14.7275 29.6898 15.5283C30.1586 16.3291 30.3929 17.2568 30.3929 18.3115C30.3929 19.4541 30.1097 20.4892 29.5433 21.417C28.9769 22.3447 28.2787 23.1601 27.4486 23.8633C26.6283 24.5566 25.5443 25.3672 24.1966 26.2949C22.9955 27.125 22.0384 27.8281 21.3255 28.4043C20.6127 28.9805 19.9877 29.6348 19.4505 30.3672C19.0566 30.9143 18.7744 31.4969 18.6039 32.1149C18.5461 32.3241 18.5012 32.5375 18.4691 32.7549H30.9642V34H17.0043V33.6191C17.0043 33.5321 17.0059 33.4458 17.0091 33.36ZM19.2713 32.1149H30.9642C31.3177 32.1149 31.6042 32.4014 31.6042 32.7549V34C31.6042 34.3534 31.3177 34.64 30.9642 34.64H17.0043C16.6508 34.64 16.3643 34.3534 16.3643 34V33.6191C16.3643 32.3461 16.6813 31.1759 17.3209 30.1238C17.9318 29.1094 18.6836 28.2175 19.5751 27.4504L19.5779 27.448C20.4483 26.7077 21.5743 25.8552 22.9507 24.8917C24.212 24.0088 25.2052 23.2596 25.9366 22.6423C26.6514 22.0374 27.2425 21.3633 27.7138 20.6201L27.7148 20.6184C28.1685 19.908 28.3906 19.153 28.3906 18.3408C28.3906 17.6202 28.2287 17.02 27.926 16.518L27.9237 16.5142C27.6227 16.0074 27.1807 15.6066 26.5713 15.3144L26.5682 15.3129C25.9704 15.0223 25.2354 14.8646 24.3431 14.8646C23.3279 14.8646 22.4692 15.0706 21.7473 15.4613L21.745 15.4626C21.0351 15.8429 20.4719 16.3948 20.0506 17.1342C19.6323 17.8684 19.3884 18.7702 19.3429 19.8616C19.3357 20.0352 19.2582 20.1984 19.1282 20.3137C18.9983 20.429 18.8271 20.4865 18.6538 20.473L17.3355 20.3705C16.9933 20.3439 16.733 20.0521 16.7455 19.7091C16.7975 18.2854 17.1263 17.0069 17.749 15.8904C18.3754 14.7672 19.2652 13.8944 20.4063 13.2806C21.5622 12.6542 22.9114 12.3541 24.431 12.3541C25.773 12.3541 26.9557 12.5912 27.9546 13.0955C28.9461 13.5864 29.7172 14.2903 30.2436 15.2075C30.7763 16.1186 31.0329 17.1601 31.0329 18.3115C31.0329 19.5655 30.7205 20.7171 30.0896 21.7505C29.4875 22.7366 28.7445 23.6043 27.8623 24.3516C27.0198 25.0637 25.9166 25.8879 24.5595 26.8221C24.5592 26.8223 24.5599 26.8219 24.5595 26.8221M24.5595 26.8221C23.3653 27.6474 22.423 28.3402 21.7278 28.902C21.0582 29.4433 20.4721 30.0568 19.9683 30.7434C19.6552 31.1787 19.4237 31.6353 19.2713 32.1149" fill="#FF3D00"/>
<defs>
<linearGradient id="paint0_linear_695_2372" x1="6" y1="10.7857" x2="43.7333" y2="13.5535" gradientUnits="userSpaceOnUse">
<stop stop-color="#FF3D00"/>
<stop offset="1" stop-color="#FF3C3C"/>
</linearGradient>
</defs>
</svg>
