<svg width="18" height="20" viewBox="0 0 18 20" fill="none" xmlns="http://www.w3.org/2000/svg">
<path d="M18 2.105C17.9945 1.5568 17.7649 1.03277 17.3609 0.64653C16.9569 0.260285 16.411 0.0429572 15.8417 0.0416667L2.14788 0C1.57916 0.000108426 1.03369 0.21737 0.63106 0.604154C0.228427 0.990937 0.00148909 1.51568 0 2.06333V15.6667C0 16.8042 0.964038 17.6667 2.14788 17.6667H13.8462L13.2837 15.8333L18 20V2.105ZM11.9704 13.0754C11.9704 13.0754 11.5931 12.6425 11.2781 12.2704C12.6515 11.8979 13.1755 11.0833 13.1755 11.0833C12.7983 11.3243 12.394 11.5235 11.9704 11.6771C11.4813 11.8726 10.9721 12.0178 10.4512 12.11C9.55382 12.2687 8.63355 12.2653 7.7374 12.1C7.21028 12.0057 6.69435 11.8606 6.19745 11.6667C5.93459 11.5697 5.67898 11.4554 5.43245 11.3246C5.40087 11.3046 5.36971 11.2946 5.33812 11.2742C5.31692 11.2642 5.30654 11.2542 5.29486 11.2542C5.1062 11.1533 5.00149 11.0829 5.00149 11.0829C5.00149 11.0829 5.50428 11.8783 6.83524 12.2604C6.52067 12.6429 6.13298 13.0858 6.13298 13.0858C3.81764 13.0154 2.93755 11.5663 2.93755 11.5663C2.93755 8.35542 4.44635 5.74875 4.44635 5.74875C5.95514 4.67167 7.38 4.70208 7.38 4.70208L7.48471 4.82292C5.59861 5.33625 4.73971 6.13125 4.73971 6.13125C4.73971 6.13125 4.9699 6.01042 5.3576 5.84917C6.4787 5.37625 7.36962 5.25542 7.7374 5.21542C7.7961 5.20367 7.85575 5.19684 7.91567 5.195C8.61777 5.10727 9.32823 5.10056 10.032 5.175C11.137 5.29723 12.2075 5.62181 13.1859 6.13125C13.1859 6.13125 12.3581 5.375 10.5767 4.8625L10.7234 4.70167C10.7234 4.70167 12.1587 4.67125 13.6575 5.75C13.6575 5.75 15.1663 8.35667 15.1663 11.5675C15.1663 11.5558 14.2858 13.005 11.9704 13.0754V13.0754Z" fill="url(#paint0_linear_501_4250)"/>
<defs>
<linearGradient id="paint0_linear_501_4250" x1="0.9" y1="3.39286" x2="17.8973" y2="4.51497" gradientUnits="userSpaceOnUse">
<stop stop-color="#FF3D00"/>
<stop offset="1" stop-color="#FF3C3C"/>
</linearGradient>
</defs>
</svg>
