<svg width="104" height="104" viewBox="0 0 104 104" fill="none" xmlns="http://www.w3.org/2000/svg">
<path d="M92.9165 52C92.9165 74.5976 74.5975 92.9167 51.9998 92.9167C29.4022 92.9167 11.0832 74.5976 11.0832 52C11.0832 29.4023 29.4022 11.0833 51.9998 11.0833C74.5975 11.0833 92.9165 29.4023 92.9165 52ZM51.9998 95.5833C76.0702 95.5833 95.5832 76.0704 95.5832 52C95.5832 27.9296 76.0702 8.41666 51.9998 8.41666C27.9294 8.41666 8.4165 27.9296 8.4165 52C8.4165 76.0704 27.9294 95.5833 51.9998 95.5833Z" fill="url(#paint0_linear_630_296)" stroke="url(#paint1_linear_630_296)" stroke-width="0.5"/>
<path fill-rule="evenodd" clip-rule="evenodd" d="M73.9872 34.9795C74.6959 35.5872 74.7655 36.6405 74.1427 37.3321L43.7492 71.0815C43.4249 71.4417 42.9574 71.6481 42.466 71.6481C41.9747 71.6481 41.5072 71.4417 41.1828 71.0815L27.3676 55.7409C26.7448 55.0493 26.8145 53.996 27.5232 53.3883C28.2318 52.7806 29.3112 52.8486 29.934 53.5401L42.466 67.4559L71.5763 35.1313C72.1991 34.4397 73.2785 34.3718 73.9872 34.9795Z" fill="url(#paint2_linear_630_296)"/>
<path fill-rule="evenodd" clip-rule="evenodd" d="M71.0933 34.6963C71.9535 33.7412 73.4352 33.6499 74.4103 34.4861C75.3947 35.3302 75.4942 36.8027 74.6257 37.767L44.2322 71.5165C43.7827 72.0157 43.1387 72.2981 42.466 72.2981C41.7934 72.2981 41.1493 72.0157 40.6998 71.5165L26.8846 56.1758C26.0161 55.2115 26.1157 53.739 27.1 52.8949C28.0751 52.0587 29.5569 52.15 30.417 53.1051L42.466 66.4846L71.0933 34.6963ZM73.5641 35.4729C73.1218 35.0937 72.4448 35.1383 72.0593 35.5663L42.949 67.8909C42.8258 68.0277 42.6502 68.1059 42.466 68.1059C42.2818 68.1059 42.1063 68.0277 41.983 67.8909L29.451 53.9751C29.0656 53.5471 28.3885 53.5025 27.9463 53.8817C27.5133 54.2531 27.4735 54.8872 27.8506 55.3059L41.6658 70.6466C41.865 70.8677 42.156 70.9981 42.466 70.9981C42.776 70.9981 43.0671 70.8677 43.2662 70.6466L73.6597 36.8971C74.0368 36.4784 73.9971 35.8443 73.5641 35.4729Z" fill="url(#paint3_linear_630_296)"/>
<defs>
<linearGradient id="paint0_linear_630_296" x1="12.9998" y1="23.3691" x2="94.7553" y2="29.366" gradientUnits="userSpaceOnUse">
<stop stop-color="#FF3D00"/>
<stop offset="1" stop-color="#FF3C3C"/>
</linearGradient>
<linearGradient id="paint1_linear_630_296" x1="12.9998" y1="23.3691" x2="94.7553" y2="29.366" gradientUnits="userSpaceOnUse">
<stop stop-color="#FF3D00"/>
<stop offset="1" stop-color="#FF3C3C"/>
</linearGradient>
<linearGradient id="paint2_linear_630_296" x1="28.7387" y1="40.4262" x2="74.7379" y2="44.727" gradientUnits="userSpaceOnUse">
<stop stop-color="#FF3D00"/>
<stop offset="1" stop-color="#FF3C3C"/>
</linearGradient>
<linearGradient id="paint3_linear_630_296" x1="28.7387" y1="40.4262" x2="74.7379" y2="44.727" gradientUnits="userSpaceOnUse">
<stop stop-color="#FF3D00"/>
<stop offset="1" stop-color="#FF3C3C"/>
</linearGradient>
</defs>
</svg>
