<svg width="20" height="29" viewBox="0 0 20 29" fill="none" xmlns="http://www.w3.org/2000/svg">
<path d="M9.20037 28.42C6.80037 28.42 4.20537 28.28 1.43537 28V23.63C5.02037 24.025 7.58037 24.22 9.12037 24.22C10.5504 24.22 11.5854 24.12 12.2304 23.925C12.8704 23.725 13.2904 23.365 13.4904 22.835C13.7104 22.3 13.8254 21.46 13.8254 20.315V17.75H9.29037C7.77537 17.75 6.68537 17.735 6.01037 17.71C5.24453 17.6365 4.48663 17.496 3.74537 17.29C3.01725 17.1369 2.33858 16.8053 1.77037 16.325C1.25315 15.7977 0.852798 15.1673 0.595369 14.475C0.26926 13.5298 0.111862 12.5347 0.130367 11.535V7.835C0.130367 6.55 0.330368 5.43501 0.720368 4.48001C1.11037 3.50001 1.62037 2.73001 2.23037 2.17001C2.79037 1.69501 3.52037 1.3 4.41537 0.995004C5.34037 0.685004 6.25037 0.490004 7.14537 0.405004C8.21037 0.350004 9.17537 0.320007 10.0454 0.320007C11.3604 0.320007 12.3954 0.365005 13.1504 0.445005C13.9354 0.505005 14.7604 0.670005 15.6304 0.950005C16.4724 1.19711 17.2453 1.63714 17.8876 2.23516C18.5299 2.83317 19.0239 3.57269 19.3304 4.39501C19.7367 5.49729 19.9351 6.66538 19.9154 7.84001V20.525C19.9154 23.35 19.0604 25.38 17.3504 26.615C15.6704 27.815 12.9554 28.415 9.20037 28.415V28.42ZM13.8254 13.675V7.30001C13.8254 6.35001 13.7404 5.69 13.5754 5.325C13.4304 4.96 13.1104 4.72501 12.6054 4.61001C11.7313 4.46767 10.8455 4.41074 9.96037 4.44C9.11498 4.40872 8.26891 4.47922 7.44037 4.65C7.22934 4.68733 7.03081 4.77624 6.86245 4.90884C6.69408 5.04144 6.56111 5.2136 6.47537 5.41001C6.30537 5.77001 6.22537 6.40001 6.22537 7.30001V11.455C6.22537 12.13 6.30537 12.62 6.47537 12.925C6.64037 13.205 6.97537 13.4 7.48037 13.515C8.31337 13.6486 9.15706 13.7039 10.0004 13.68H13.8254V13.675Z" fill="#FF6309"/>
</svg>
