<svg width="20" height="29" viewBox="0 0 20 29" fill="none" xmlns="http://www.w3.org/2000/svg">
<path d="M9.94992 28.4199C7.59992 28.4199 4.54992 28.2099 0.794922 27.7899V22.9149L2.13992 23.1649C2.66992 23.2799 2.96492 23.3499 3.01992 23.3799L4.44992 23.6299C4.78492 23.6849 5.49992 23.7699 6.58992 23.8799C7.42992 23.9649 8.28492 24.0099 9.15492 24.0099C10.7749 24.0099 11.8949 23.8099 12.5149 23.4199C13.1549 23.0299 13.4799 22.2849 13.4799 21.1949V18.0449C13.4799 16.7299 12.0649 16.0699 9.23492 16.0699H4.28492V11.8699H9.23492C11.4199 11.8699 12.5149 11.0699 12.5149 9.47494V6.82995C12.5451 6.35709 12.4261 5.88668 12.1749 5.48495C11.9549 5.14995 11.5449 4.91495 10.9599 4.77495C10.1305 4.61 9.28516 4.53955 8.43992 4.56495C6.83992 4.56495 4.37992 4.72994 1.04492 5.06494V0.699943C4.85492 0.449943 7.54492 0.319946 9.10992 0.319946C12.5249 0.319946 14.9899 0.714945 16.5049 1.49494C18.0449 2.27994 18.8149 3.66494 18.8149 5.65494V10.1499C18.8313 10.9201 18.5604 11.6687 18.0549 12.2499C17.5734 12.814 16.9259 13.2112 16.2049 13.3849C18.6749 14.2499 19.9049 15.6099 19.9049 17.4549V21.9049C19.9049 24.2349 19.1049 25.8999 17.5099 26.9049C15.9149 27.9149 13.3949 28.4199 9.94992 28.4199Z" fill="#1CE400"/>
</svg>
