<svg width="42" height="29" viewBox="0 0 42 29" fill="none" xmlns="http://www.w3.org/2000/svg">
<path d="M8.16498 7.165L0.72998 11.285V6.115L9.33998 0.740005H14.295V28H8.16498V7.165ZM31.14 28.42C29.91 28.42 28.9 28.375 28.12 28.295C27.253 28.1949 26.3953 28.026 25.555 27.79C24.7106 27.5659 23.9234 27.1654 23.245 26.615C22.5889 25.9798 22.0862 25.2035 21.775 24.345C21.3281 23.2529 21.1136 22.0796 21.145 20.9V7.84001C21.145 6.55001 21.345 5.415 21.735 4.44C22.0561 3.56376 22.5725 2.77211 23.245 2.12501C23.78 1.65001 24.505 1.275 25.43 0.995004C26.3274 0.691905 27.2569 0.493915 28.2 0.405004C29.265 0.350004 30.25 0.320007 31.14 0.320007C32.4 0.320007 33.41 0.365005 34.165 0.445005C35.0206 0.52264 35.8655 0.691944 36.685 0.950005C37.695 1.26 38.49 1.66501 39.08 2.17001C39.67 2.67001 40.17 3.4 40.59 4.355C41.01 5.305 41.22 6.46501 41.22 7.84001V20.9C41.22 22.19 41.01 23.325 40.59 24.3C40.2759 25.1668 39.758 25.9453 39.08 26.57C38.3952 27.1105 37.6101 27.5099 36.77 27.745C35.82 28.055 34.91 28.235 34.04 28.295C33.0761 28.387 32.1082 28.4287 31.14 28.42ZM31.225 24.47C32.4 24.47 33.24 24.4 33.745 24.26C33.969 24.1995 34.1764 24.0889 34.3514 23.9364C34.5264 23.784 34.6644 23.5937 34.755 23.38C34.92 22.96 35.005 22.275 35.005 21.32V7.42001C35.005 6.47001 34.92 5.78 34.755 5.36C34.6674 5.14853 34.5297 4.96155 34.3538 4.8152C34.1778 4.66885 33.9689 4.56754 33.745 4.52001C33.245 4.35501 32.4 4.27001 31.225 4.27001C30.025 4.27001 29.155 4.35501 28.625 4.52001C28.4011 4.56754 28.1921 4.66885 28.0162 4.8152C27.8402 4.96155 27.7025 5.14853 27.615 5.36C27.445 5.78 27.365 6.46501 27.365 7.42001V21.32C27.365 22.27 27.445 22.96 27.615 23.38C27.78 23.8 28.115 24.095 28.62 24.26C29.155 24.4 30.02 24.47 31.225 24.47Z" fill="#FE1F00"/>
</svg>
