<svg width="104" height="104" viewBox="0 0 104 104" fill="none" xmlns="http://www.w3.org/2000/svg">
<path d="M92.9165 52C92.9165 74.5976 74.5975 92.9167 51.9998 92.9167C29.4022 92.9167 11.0832 74.5976 11.0832 52C11.0832 29.4023 29.4022 11.0833 51.9998 11.0833C74.5975 11.0833 92.9165 29.4023 92.9165 52ZM51.9998 95.5833C76.0702 95.5833 95.5832 76.0704 95.5832 52C95.5832 27.9296 76.0702 8.41666 51.9998 8.41666C27.9294 8.41666 8.4165 27.9296 8.4165 52C8.4165 76.0704 27.9294 95.5833 51.9998 95.5833Z" fill="url(#paint0_linear_630_391)" stroke="url(#paint1_linear_630_391)" stroke-width="0.5"/>
<path fill-rule="evenodd" clip-rule="evenodd" d="M34.6664 50.2667C35.6237 50.2667 36.3998 51.0427 36.3998 52V71.9333H67.5998V52C67.5998 51.0427 68.3758 50.2667 69.3331 50.2667C70.2904 50.2667 71.0664 51.0427 71.0664 52V73.6667C71.0664 74.624 70.2904 75.4 69.3331 75.4H34.6664C33.7091 75.4 32.9331 74.624 32.9331 73.6667V52C32.9331 51.0427 33.7091 50.2667 34.6664 50.2667Z" fill="url(#paint2_linear_630_391)"/>
<path fill-rule="evenodd" clip-rule="evenodd" d="M28.6001 41.1667C28.6001 40.2094 29.3761 39.4333 30.3334 39.4333H73.6668C74.6241 39.4333 75.4001 40.2094 75.4001 41.1667V52C75.4001 52.9573 74.6241 53.7333 73.6668 53.7333H30.3334C29.3761 53.7333 28.6001 52.9573 28.6001 52V41.1667ZM32.0668 42.9V50.2667H71.9334V42.9H32.0668Z" fill="url(#paint3_linear_630_391)"/>
<path fill-rule="evenodd" clip-rule="evenodd" d="M51.9999 39.4333C52.9572 39.4333 53.7333 40.2094 53.7333 41.1667V73.6667C53.7333 74.624 52.9572 75.4 51.9999 75.4C51.0426 75.4 50.2666 74.624 50.2666 73.6667V41.1667C50.2666 40.2094 51.0426 39.4333 51.9999 39.4333Z" fill="url(#paint4_linear_630_391)"/>
<path fill-rule="evenodd" clip-rule="evenodd" d="M42.2501 32.0667C41.2732 32.0667 40.3363 32.4547 39.6456 33.1455C38.9548 33.8363 38.5668 34.7731 38.5668 35.75C38.5668 36.7269 38.9548 37.6638 39.6456 38.3545C40.3363 39.0453 41.2732 39.4333 42.2501 39.4333H49.7032C49.4079 38.5848 48.997 37.5798 48.4501 36.5853C47.062 34.0615 45.0779 32.0667 42.2501 32.0667ZM52.0001 41.1667C53.6998 40.8267 53.6997 40.8261 53.6995 40.8255L53.6992 40.824L53.6985 40.8203L53.6963 40.8098L53.6895 40.7773L53.6656 40.6672C53.6449 40.5745 53.6146 40.4439 53.5738 40.2808C53.4923 39.9549 53.3685 39.497 53.1955 38.9507C52.8515 37.8644 52.3032 36.3976 51.4876 34.9147C49.8966 32.0219 47.0057 28.6 42.2501 28.6C40.3538 28.6 38.5352 29.3533 37.1943 30.6942C35.8534 32.0351 35.1001 33.8537 35.1001 35.75C35.1001 37.6463 35.8534 39.4649 37.1943 40.8058C38.5352 42.1467 40.3538 42.9 42.2501 42.9H52.0001C52.5194 42.9 53.0113 42.6672 53.3406 42.2656C53.6698 41.864 53.8016 41.3359 53.6998 40.8267L52.0001 41.1667Z" fill="url(#paint5_linear_630_391)"/>
<path fill-rule="evenodd" clip-rule="evenodd" d="M52.5124 34.9147C54.1035 32.0219 56.9944 28.6 61.75 28.6C63.6462 28.6 65.4649 29.3533 66.8058 30.6942C68.1467 32.0351 68.9 33.8537 68.9 35.75C68.9 37.6463 68.1467 39.4649 66.8058 40.8058C65.4649 42.1467 63.6462 42.9 61.75 42.9H52C51.4807 42.9 50.9887 42.6672 50.6595 42.2656C50.3303 41.864 50.1984 41.3359 50.3003 40.8267L52 41.1667C50.3003 40.8267 50.3001 40.8274 50.3003 40.8267L50.3016 40.8203L50.3037 40.8098L50.3105 40.7773L50.3345 40.6672C50.3552 40.5745 50.3855 40.4439 50.4263 40.2808C50.5078 39.9549 50.6315 39.497 50.8045 38.9507C51.1485 37.8644 51.6968 36.3976 52.5124 34.9147ZM54.2968 39.4333H61.75C62.7268 39.4333 63.6637 39.0453 64.3545 38.3545C65.0452 37.6638 65.4333 36.7269 65.4333 35.75C65.4333 34.7731 65.0452 33.8363 64.3545 33.1455C63.6637 32.4547 62.7268 32.0667 61.75 32.0667C58.9222 32.0667 56.9381 34.0615 55.55 36.5853C55.003 37.5798 54.5922 38.5848 54.2968 39.4333Z" fill="url(#paint6_linear_630_391)"/>
<defs>
<linearGradient id="paint0_linear_630_391" x1="12.9998" y1="23.3691" x2="94.7553" y2="29.366" gradientUnits="userSpaceOnUse">
<stop stop-color="#FF3D00"/>
<stop offset="1" stop-color="#FF3C3C"/>
</linearGradient>
<linearGradient id="paint1_linear_630_391" x1="12.9998" y1="23.3691" x2="94.7553" y2="29.366" gradientUnits="userSpaceOnUse">
<stop stop-color="#FF3D00"/>
<stop offset="1" stop-color="#FF3C3C"/>
</linearGradient>
<linearGradient id="paint2_linear_630_391" x1="34.8398" y1="54.5304" x2="70.5633" y2="58.5061" gradientUnits="userSpaceOnUse">
<stop stop-color="#FF3D00"/>
<stop offset="1" stop-color="#FF3C3C"/>
</linearGradient>
<linearGradient id="paint3_linear_630_391" x1="30.9401" y1="41.8592" x2="72.9071" y2="51.9339" gradientUnits="userSpaceOnUse">
<stop stop-color="#FF3D00"/>
<stop offset="1" stop-color="#FF3C3C"/>
</linearGradient>
<linearGradient id="paint4_linear_630_391" x1="50.4399" y1="45.5348" x2="53.7276" y2="45.5581" gradientUnits="userSpaceOnUse">
<stop stop-color="#FF3D00"/>
<stop offset="1" stop-color="#FF3C3C"/>
</linearGradient>
<linearGradient id="paint5_linear_630_391" x1="36.0318" y1="31.0259" x2="53.5438" y2="32.6997" gradientUnits="userSpaceOnUse">
<stop stop-color="#FF3D00"/>
<stop offset="1" stop-color="#FF3C3C"/>
</linearGradient>
<linearGradient id="paint6_linear_630_391" x1="51.1983" y1="31.0259" x2="68.7103" y2="32.6997" gradientUnits="userSpaceOnUse">
<stop stop-color="#FF3D00"/>
<stop offset="1" stop-color="#FF3C3C"/>
</linearGradient>
</defs>
</svg>
