<svg width="16" height="17" viewBox="0 0 16 17" fill="none" xmlns="http://www.w3.org/2000/svg">
<path fill-rule="evenodd" clip-rule="evenodd" d="M8.87624 15.0332L8.87624 3.57677L13.8874 8.58917C14.0741 8.78517 14.3329 8.89611 14.6035 8.89611C14.8742 8.89611 15.133 8.78517 15.3196 8.58917C15.5156 8.40253 15.6266 8.14372 15.6266 7.87307C15.6266 7.60242 15.5156 7.3436 15.3196 7.15697L8.67164 0.507768C8.2031 0.0976708 7.50338 0.0976708 7.03484 0.507768L0.387442 7.15697C0.191436 7.3436 0.0804965 7.60242 0.0804965 7.87307C0.0804964 8.14371 0.191436 8.40253 0.387442 8.58917C0.574076 8.78517 0.832894 8.89611 1.10354 8.89611C1.37419 8.89611 1.63301 8.78517 1.81964 8.58917L6.83204 3.57677L6.83204 15.0332C6.81638 15.3082 6.9188 15.5768 7.11359 15.7716C7.30837 15.9664 7.57702 16.0688 7.85204 16.0532C8.12777 16.0701 8.39757 15.9682 8.5933 15.7733C8.78904 15.5783 8.89202 15.309 8.87624 15.0332L8.87624 15.0332Z" fill="#0E0E0F"/>
</svg>
