<svg width="22" height="22" viewBox="0 0 22 22" fill="none" xmlns="http://www.w3.org/2000/svg">
<path d="M11 21.5C16.799 21.5 21.5 16.799 21.5 11C21.5 5.20101 16.799 0.5 11 0.5C5.20101 0.5 0.5 5.20101 0.5 11C0.5 16.799 5.20101 21.5 11 21.5Z" fill="#1F1F22" stroke="url(#paint0_linear_789_1241)"/>
<path fill-rule="evenodd" clip-rule="evenodd" d="M14.9042 15.5558C15.835 14.758 16.4991 13.6942 16.8071 12.5076C17.1152 11.3209 17.0523 10.0684 16.6269 8.91858C16.2016 7.76875 15.4343 6.77682 14.4282 6.07626C13.4221 5.3757 12.2256 5.00015 10.9996 5.00015C9.77362 5.00015 8.57708 5.3757 7.57099 6.07626C6.5649 6.77682 5.79756 7.76875 5.37224 8.91858C4.94692 10.0684 4.88403 11.3209 5.19203 12.5076C5.50004 13.6942 6.16415 14.758 7.095 15.5558L5.7925 17.0742C4.91564 16.3237 4.21191 15.3921 3.72982 14.3435C3.24773 13.2948 2.99874 12.1541 3 11C3 8.87827 3.84286 6.84344 5.34315 5.34315C6.84344 3.84285 8.87827 3 11 3C12.0506 3 13.0909 3.20693 14.0615 3.60896C15.0321 4.011 15.914 4.60028 16.6569 5.34315C17.3997 6.08601 17.989 6.96793 18.391 7.93853C18.7931 8.90914 19 9.94943 19 11C19.0013 12.1543 18.7522 13.2952 18.27 14.344C17.7877 15.3928 17.0838 16.3246 16.2067 17.075L14.9042 15.5558Z" fill="#CDCDCD" fill-opacity="0.1"/>
<path fill-rule="evenodd" clip-rule="evenodd" d="M5.381 13.1083L3.50684 13.8099C3.98167 15.0731 4.76794 16.1959 5.79267 17.0741L7.09517 15.5558C6.32657 14.8972 5.73692 14.055 5.381 13.1074V13.1083Z" fill="#1CE400"/>
<path d="M9.375 11.9641C9.375 11.7116 9.445 11.4924 9.585 11.3058C9.72617 11.1179 9.91447 10.9708 10.1308 10.8791C10.3346 10.7895 10.5426 10.71 10.7542 10.6408C10.9486 10.5815 11.1343 10.4969 11.3067 10.3891C11.4375 10.2999 11.5025 10.1949 11.5025 10.0741V9.49245C11.5025 9.34828 11.4442 9.25245 11.3275 9.20578C11.2025 9.15411 11.0058 9.12911 10.74 9.12911C10.4175 9.12911 9.99333 9.18745 9.46583 9.30411V8.53328C9.94719 8.43361 10.4376 8.38417 10.9292 8.38578C11.4792 8.38578 11.8875 8.46995 12.1542 8.63828C12.4242 8.80578 12.56 9.08578 12.56 9.47828V10.1083C12.56 10.3458 12.4875 10.5533 12.3433 10.7308C12.1984 10.9068 12.01 11.0419 11.7967 11.1224C11.5867 11.2116 11.3717 11.2908 11.1525 11.3608C10.9512 11.4265 10.7603 11.5208 10.5858 11.6408C10.4508 11.7433 10.3825 11.8658 10.3825 12.0049V12.2358H12.5667V12.9991H9.375V11.9633V11.9641Z" fill="#1CE400"/>
<defs>
<linearGradient id="paint0_linear_789_1241" x1="2" y1="4.39286" x2="20.8667" y2="5.77677" gradientUnits="userSpaceOnUse">
<stop stop-color="#FF3D00"/>
<stop offset="1" stop-color="#FF3C3C"/>
</linearGradient>
</defs>
</svg>
