<svg width="22" height="22" viewBox="0 0 22 22" fill="none" xmlns="http://www.w3.org/2000/svg">
<path d="M11 21.5C16.799 21.5 21.5 16.799 21.5 11C21.5 5.20101 16.799 0.5 11 0.5C5.20101 0.5 0.5 5.20101 0.5 11C0.5 16.799 5.20101 21.5 11 21.5Z" fill="#1F1F22" stroke="url(#paint0_linear_789_1248)"/>
<path fill-rule="evenodd" clip-rule="evenodd" d="M14.905 15.5558C15.8359 14.758 16.5 13.6942 16.808 12.5076C17.116 11.3209 17.0531 10.0684 16.6278 8.91858C16.2024 7.76875 15.4351 6.77682 14.429 6.07626C13.4229 5.3757 12.2264 5.00015 11.0004 5.00015C9.77446 5.00015 8.57791 5.3757 7.57182 6.07626C6.56574 6.77682 5.7984 7.76875 5.37307 8.91858C4.94775 10.0684 4.88486 11.3209 5.19286 12.5076C5.50087 13.6942 6.16499 14.758 7.09584 15.5558L5.79334 17.0742C4.91632 16.3238 4.21243 15.3922 3.7302 14.3436C3.24796 13.2949 2.99884 12.1542 3 11C3 8.87827 3.84286 6.84344 5.34315 5.34315C6.84344 3.84285 8.87827 3 11 3C12.0506 3 13.0909 3.20693 14.0615 3.60896C15.0321 4.011 15.914 4.60028 16.6569 5.34315C17.3997 6.08601 17.989 6.96793 18.391 7.93853C18.7931 8.90914 19 9.94943 19 11C19.0013 12.1543 18.7522 13.2952 18.27 14.344C17.7877 15.3928 17.0838 16.3246 16.2067 17.075L14.905 15.5558Z" fill="#CDCDCD" fill-opacity="0.1"/>
<path fill-rule="evenodd" clip-rule="evenodd" d="M3 11C2.99872 12.1543 3.24778 13.2952 3.73002 14.344C4.21226 15.3928 4.91621 16.3246 5.79334 17.075L7.095 15.5558C6.43732 14.993 5.90952 14.2942 5.54798 13.5077C5.18645 12.7212 4.99977 11.8656 5.00084 11H3Z" fill="#1CE400"/>
<path d="M10.8247 13.0701C10.433 13.0701 9.92466 13.0351 9.29883 12.9651V12.1526L9.52299 12.1942C9.61133 12.2134 9.6605 12.2251 9.66966 12.2301L9.90799 12.2717C9.96383 12.2809 10.083 12.2951 10.2647 12.3134C10.4047 12.3276 10.5472 12.3351 10.6922 12.3351C10.9622 12.3351 11.1488 12.3017 11.2522 12.2367C11.3588 12.1717 11.413 12.0476 11.413 11.8659V11.3409C11.413 11.1217 11.1772 11.0117 10.7055 11.0117H9.88049V10.3117H10.7055C11.0697 10.3117 11.2522 10.1784 11.2522 9.91255V9.47172C11.2572 9.39291 11.2374 9.31451 11.1955 9.24755C11.1588 9.19172 11.0905 9.15255 10.993 9.12922C10.8548 9.10173 10.7139 9.08999 10.573 9.09422C10.3063 9.09422 9.89633 9.12172 9.34049 9.17755V8.45005C9.97549 8.40838 10.4238 8.38672 10.6847 8.38672C11.2538 8.38672 11.6647 8.45255 11.9172 8.58255C12.1738 8.71339 12.3022 8.94422 12.3022 9.27588V10.0251C12.3049 10.1534 12.2597 10.2782 12.1755 10.3751C12.0952 10.4691 11.9873 10.5353 11.8672 10.5642C12.2788 10.7084 12.4838 10.9351 12.4838 11.2426V11.9842C12.4838 12.3726 12.3505 12.6501 12.0847 12.8176C11.8188 12.9859 11.3988 13.0701 10.8247 13.0701Z" fill="#1CE400"/>
<defs>
<linearGradient id="paint0_linear_789_1248" x1="2" y1="4.39286" x2="20.8667" y2="5.77677" gradientUnits="userSpaceOnUse">
<stop stop-color="#FF3D00"/>
<stop offset="1" stop-color="#FF3C3C"/>
</linearGradient>
</defs>
</svg>
