<svg width="22" height="22" viewBox="0 0 22 22" fill="none" xmlns="http://www.w3.org/2000/svg">
<path d="M11 21.5C16.799 21.5 21.5 16.799 21.5 11C21.5 5.20101 16.799 0.5 11 0.5C5.20101 0.5 0.5 5.20101 0.5 11C0.5 16.799 5.20101 21.5 11 21.5Z" fill="#1F1F22" stroke="url(#paint0_linear_789_1262)"/>
<path fill-rule="evenodd" clip-rule="evenodd" d="M14.905 15.5558C15.8359 14.758 16.5 13.6942 16.808 12.5076C17.116 11.3209 17.0531 10.0684 16.6278 8.91858C16.2024 7.76875 15.4351 6.77682 14.429 6.07626C13.4229 5.3757 12.2264 5.00015 11.0004 5.00015C9.77446 5.00015 8.57791 5.3757 7.57182 6.07626C6.56574 6.77682 5.7984 7.76875 5.37307 8.91858C4.94775 10.0684 4.88486 11.3209 5.19286 12.5076C5.50087 13.6942 6.16499 14.758 7.09584 15.5558L5.79334 17.0742C4.91632 16.3238 4.21243 15.3922 3.7302 14.3436C3.24796 13.2949 2.99884 12.1542 3 11C3 8.87827 3.84286 6.84344 5.34315 5.34315C6.84344 3.84285 8.87827 3 11 3C12.0506 3 13.0909 3.20693 14.0615 3.60896C15.0321 4.011 15.914 4.60028 16.6569 5.34315C17.3997 6.08601 17.989 6.96793 18.391 7.93853C18.7931 8.90914 19 9.94943 19 11C19.0013 12.1543 18.7522 13.2952 18.27 14.344C17.7877 15.3928 17.0838 16.3246 16.2067 17.075L14.905 15.5558Z" fill="#CDCDCD" fill-opacity="0.1"/>
<path fill-rule="evenodd" clip-rule="evenodd" d="M11 3C8.87827 3 6.84344 3.84285 5.34315 5.34315C3.84286 6.84344 3 8.87827 3 11C2.99872 12.1543 3.24778 13.2952 3.73002 14.344C4.21226 15.3928 4.91621 16.3246 5.79334 17.075L7.095 15.5558C6.16407 14.758 5.49989 13.6941 5.19186 12.5074C4.88383 11.3207 4.94674 10.0681 5.37213 8.91826C5.79751 7.76838 6.56494 6.77642 7.57113 6.07588C8.57732 5.37535 9.77397 4.99988 11 5V3Z" fill="#FFC800"/>
<path d="M10.8457 13.0701C10.524 13.0701 10.0407 13.0443 9.39648 12.9926V12.146C9.97565 12.2535 10.4115 12.3068 10.7057 12.3068C10.9623 12.3068 11.149 12.2793 11.2657 12.2235C11.3193 12.1992 11.3646 12.1596 11.3958 12.1096C11.427 12.0596 11.4426 12.0015 11.4407 11.9426V11.2643C11.4407 11.1376 11.399 11.0493 11.3148 10.9976C11.2307 10.9418 11.0932 10.9143 10.9015 10.9143H9.50148V8.45679H12.3715V9.24095H10.5248V10.1651H11.2382C11.509 10.1651 11.7732 10.216 12.0298 10.3193C12.1705 10.3789 12.2898 10.4796 12.3722 10.6082C12.4546 10.7369 12.4962 10.8874 12.4915 11.0401V11.9918C12.4915 12.1743 12.4565 12.3376 12.3865 12.4818C12.3165 12.6218 12.2282 12.7293 12.1198 12.8043C12.0057 12.8835 11.8776 12.9404 11.7423 12.9718C11.5882 13.0135 11.439 13.0418 11.2948 13.056C11.1455 13.0647 10.996 13.0694 10.8465 13.0701H10.8457Z" fill="#FFC800"/>
<defs>
<linearGradient id="paint0_linear_789_1262" x1="2" y1="4.39286" x2="20.8667" y2="5.77677" gradientUnits="userSpaceOnUse">
<stop stop-color="#FF3D00"/>
<stop offset="1" stop-color="#FF3C3C"/>
</linearGradient>
</defs>
</svg>
