<svg width="22" height="22" viewBox="0 0 22 22" fill="none" xmlns="http://www.w3.org/2000/svg">
<path d="M11 21.5C16.799 21.5 21.5 16.799 21.5 11C21.5 5.20101 16.799 0.5 11 0.5C5.20101 0.5 0.5 5.20101 0.5 11C0.5 16.799 5.20101 21.5 11 21.5Z" fill="#1F1F22" stroke="url(#paint0_linear_789_1276)"/>
<path fill-rule="evenodd" clip-rule="evenodd" d="M14.905 15.5558C15.8359 14.758 16.5 13.6942 16.808 12.5076C17.116 11.3209 17.0531 10.0684 16.6278 8.91858C16.2024 7.76875 15.4351 6.77682 14.429 6.07626C13.4229 5.3757 12.2264 5.00015 11.0004 5.00015C9.77446 5.00015 8.57791 5.3757 7.57182 6.07626C6.56574 6.77682 5.7984 7.76875 5.37307 8.91858C4.94775 10.0684 4.88486 11.3209 5.19286 12.5076C5.50087 13.6942 6.16499 14.758 7.09584 15.5558L5.79334 17.0742C4.91632 16.3238 4.21243 15.3922 3.7302 14.3436C3.24796 13.2949 2.99884 12.1542 3 11C3 8.87827 3.84286 6.84344 5.34315 5.34315C6.84344 3.84285 8.87827 3 11 3C12.0506 3 13.0909 3.20693 14.0615 3.60896C15.0321 4.011 15.914 4.60028 16.6569 5.34315C17.3997 6.08601 17.989 6.96793 18.391 7.93853C18.7931 8.90914 19 9.94943 19 11C19.0013 12.1543 18.7522 13.2952 18.27 14.344C17.7877 15.3928 17.0838 16.3246 16.2067 17.075L14.905 15.5558Z" fill="#CDCDCD" fill-opacity="0.1"/>
<path fill-rule="evenodd" clip-rule="evenodd" d="M15.945 7.60011C15.4612 6.89725 14.833 6.30566 14.1025 5.86483C13.3719 5.424 12.5557 5.14407 11.7083 5.04372C10.8609 4.94337 10.0019 5.02491 9.18858 5.2829C8.37523 5.54089 7.62627 5.96939 6.99167 6.53981C6.35708 7.11023 5.85145 7.80944 5.50853 8.59078C5.16561 9.37212 4.99329 10.2176 5.00307 11.0708C5.01285 11.9241 5.2045 12.7654 5.56524 13.5387C5.92598 14.312 6.4475 14.9994 7.095 15.5551L5.79334 17.0751C4.91621 16.3247 4.21226 15.3929 3.73002 14.3441C3.24778 13.2954 2.99872 12.1545 3 11.0001C2.99946 9.29252 3.54532 7.62955 4.55773 6.25445C5.57015 4.87934 6.996 3.86427 8.62672 3.35769C10.2575 2.85112 12.0075 2.87962 13.6208 3.43904C15.2342 3.99846 16.6262 5.05944 17.5933 6.46678L15.945 7.60011Z" fill="#FFC800"/>
<path d="M11.455 9.25512H9.25V8.45679H12.5833V9.15679L10.8392 13.0001H9.70583L11.4558 9.25512H11.455Z" fill="#FFC800"/>
<defs>
<linearGradient id="paint0_linear_789_1276" x1="2" y1="4.39286" x2="20.8667" y2="5.77677" gradientUnits="userSpaceOnUse">
<stop stop-color="#FF3D00"/>
<stop offset="1" stop-color="#FF3C3C"/>
</linearGradient>
</defs>
</svg>
