<svg width="22" height="22" viewBox="0 0 22 22" fill="none" xmlns="http://www.w3.org/2000/svg">
<path d="M11 21.5C16.799 21.5 21.5 16.799 21.5 11C21.5 5.20101 16.799 0.5 11 0.5C5.20101 0.5 0.5 5.20101 0.5 11C0.5 16.799 5.20101 21.5 11 21.5Z" fill="#1F1F22" stroke="url(#paint0_linear_789_1269)"/>
<path fill-rule="evenodd" clip-rule="evenodd" d="M14.905 15.5558C15.8359 14.758 16.5 13.6942 16.808 12.5076C17.116 11.3209 17.0531 10.0684 16.6278 8.91858C16.2024 7.76875 15.4351 6.77682 14.429 6.07626C13.4229 5.3757 12.2264 5.00015 11.0004 5.00015C9.77446 5.00015 8.57791 5.3757 7.57182 6.07626C6.56574 6.77682 5.7984 7.76875 5.37307 8.91858C4.94775 10.0684 4.88486 11.3209 5.19286 12.5076C5.50087 13.6942 6.16499 14.758 7.09584 15.5558L5.79334 17.0742C4.91632 16.3238 4.21243 15.3922 3.7302 14.3436C3.24796 13.2949 2.99884 12.1542 3 11C3 8.87827 3.84286 6.84344 5.34315 5.34315C6.84344 3.84285 8.87827 3 11 3C12.0506 3 13.0909 3.20693 14.0615 3.60896C15.0321 4.011 15.914 4.60028 16.6569 5.34315C17.3997 6.08601 17.989 6.96793 18.391 7.93853C18.7931 8.90914 19 9.94943 19 11C19.0013 12.1543 18.7522 13.2952 18.27 14.344C17.7877 15.3928 17.0838 16.3246 16.2067 17.075L14.905 15.5558Z" fill="#CDCDCD" fill-opacity="0.1"/>
<path fill-rule="evenodd" clip-rule="evenodd" d="M14.18 5.9125C12.8966 5.11034 11.3575 4.82283 9.87106 5.10757C8.38464 5.39231 7.06072 6.22827 6.16464 7.44793C5.26855 8.66759 4.86648 10.1808 5.03902 11.6844C5.21155 13.188 5.94594 14.5709 7.095 15.5558L5.79334 17.0742C4.91632 16.3238 4.21243 15.3922 3.7302 14.3436C3.24796 13.2949 2.99884 12.1542 3 11C3 8.87827 3.84286 6.84344 5.34315 5.34315C6.84344 3.84285 8.87827 3 11 3C12.5583 3 14.0108 3.44583 15.2408 4.215L14.18 5.9125Z" fill="#FFC800"/>
<path d="M10.993 13.0701C10.8225 13.0718 10.652 13.0649 10.4822 13.0492C10.3417 13.0329 10.2031 13.0022 10.0689 12.9576C9.93027 12.9172 9.80168 12.8482 9.69137 12.7551C9.58581 12.6529 9.50438 12.5285 9.45304 12.3909C9.38484 12.2073 9.35149 12.0126 9.3547 11.8167V9.70255C9.3547 9.47922 9.3922 9.28089 9.4672 9.10755C9.54637 8.93089 9.64637 8.79505 9.76804 8.70172C9.87054 8.62255 10.008 8.55755 10.1814 8.50589C10.3446 8.45184 10.5135 8.41661 10.6847 8.40088C10.8622 8.39172 11.023 8.38672 11.168 8.38672C11.368 8.38672 11.7889 8.41005 12.428 8.45672V9.20672C11.798 9.13172 11.348 9.09422 11.0772 9.09422C10.853 9.09422 10.6939 9.10589 10.6014 9.12922C10.508 9.15255 10.4447 9.19922 10.4122 9.26922C10.3839 9.33422 10.3705 9.45255 10.3705 9.62589V10.1651H11.1189C11.3714 10.1651 11.553 10.1692 11.6647 10.1792C11.7772 10.1834 11.903 10.2042 12.043 10.2417C12.193 10.2792 12.3014 10.3334 12.3722 10.4026C12.4472 10.4684 12.5122 10.5692 12.568 10.7042C12.6197 10.8442 12.6447 11.0092 12.6447 11.2009V11.8176C12.6447 12.0317 12.6122 12.2209 12.5472 12.3842C12.4814 12.5426 12.3972 12.6659 12.2947 12.7551C12.2014 12.8384 12.078 12.9067 11.9239 12.9576C11.7795 13.0081 11.629 13.0389 11.4764 13.0492C11.3157 13.0645 11.1544 13.0715 10.993 13.0701ZM11.0072 12.3909C11.2122 12.3909 11.3547 12.3792 11.4339 12.3559C11.518 12.3326 11.5714 12.2884 11.5947 12.2226C11.6233 12.1059 11.6351 11.9858 11.6297 11.8659V11.2076C11.6297 11.0959 11.6164 11.0159 11.588 10.9701C11.5597 10.9184 11.5014 10.8834 11.413 10.8651C11.2765 10.8422 11.1381 10.8327 10.9997 10.8367H10.3697V11.8726C10.3697 12.0309 10.3814 12.1459 10.4047 12.2159C10.433 12.2859 10.4889 12.3326 10.573 12.3559C10.6614 12.3792 10.8064 12.3909 11.0064 12.3909H11.0072Z" fill="#FFC800"/>
<defs>
<linearGradient id="paint0_linear_789_1269" x1="2" y1="4.39286" x2="20.8667" y2="5.77677" gradientUnits="userSpaceOnUse">
<stop stop-color="#FF3D00"/>
<stop offset="1" stop-color="#FF3C3C"/>
</linearGradient>
</defs>
</svg>
