<svg width="96" height="85" viewBox="0 0 96 85" fill="none" xmlns="http://www.w3.org/2000/svg">
<path fill-rule="evenodd" clip-rule="evenodd" d="M71.43 75.335C77.0151 70.5481 80.9998 64.1652 82.8479 57.0454C84.6959 49.9255 84.3185 42.4104 81.7666 35.5115C79.2147 28.6125 74.6106 22.6609 68.5741 18.4576C62.5376 14.2542 55.3583 12.0009 48.0025 12.0009C40.6467 12.0009 33.4675 14.2542 27.4309 18.4576C21.3944 22.6609 16.7904 28.6125 14.2384 35.5115C11.6865 42.4104 11.3092 49.9255 13.1572 57.0454C15.0052 64.1652 18.9899 70.5481 24.575 75.335L16.76 84.445C11.4979 79.9429 7.2746 74.3533 4.38118 68.0615C1.48775 61.7696 -0.00697419 54.9252 2.44638e-05 48C2.44638e-05 35.2696 5.05715 23.0606 14.0589 14.0589C23.0606 5.05713 35.2696 0 48 0C54.3035 0 60.5452 1.24156 66.3688 3.65378C72.1925 6.06601 77.4839 9.60166 81.9411 14.0589C86.3984 18.5161 89.934 23.8076 92.3462 29.6312C94.7585 35.4548 96 41.6966 96 48C96.0077 54.9261 94.5134 61.7714 91.6199 68.0642C88.7265 74.3569 84.5028 79.9473 79.24 84.45L71.43 75.335Z" fill="#FE1F00"/>
</svg>
