<svg width="88" height="86" viewBox="0 0 88 86" fill="none" xmlns="http://www.w3.org/2000/svg">
<path fill-rule="evenodd" clip-rule="evenodd" d="M77.67 28.6C74.7672 24.3828 70.9983 20.8333 66.6147 18.1883C62.2312 15.5433 57.334 13.8637 52.2498 13.2616C47.1656 12.6595 42.0115 13.1488 37.1315 14.6967C32.2514 16.2447 27.7576 18.8157 23.95 22.2382C20.1425 25.6607 17.1087 29.856 15.0512 34.544C12.9937 39.2321 11.9597 44.3051 12.0184 49.4244C12.0771 54.5438 13.227 59.5917 15.3914 64.2314C17.5559 68.871 20.685 72.9957 24.57 76.33L16.76 85.45C11.4973 80.9474 7.27358 75.3569 4.38013 69.0642C1.48668 62.7715 -0.00769205 55.9261 2.97734e-05 49C-0.00324271 38.7544 3.2719 28.7766 9.34639 20.526C15.4209 12.2754 23.976 6.18494 33.7603 3.14549C43.5447 0.106035 54.0449 0.27707 63.7251 3.63358C73.4053 6.99009 81.7575 13.3559 87.56 21.8L77.67 28.6Z" fill="#FFC800"/>
</svg>
