<svg width="48" height="48" viewBox="0 0 48 48" fill="none" xmlns="http://www.w3.org/2000/svg">
<path d="M42.75 24C42.75 34.3553 34.3553 42.75 24 42.75C13.6447 42.75 5.25 34.3553 5.25 24C5.25 13.6447 13.6447 5.25 24 5.25C34.3553 5.25 42.75 13.6447 42.75 24ZM24 44.25C35.1838 44.25 44.25 35.1838 44.25 24C44.25 12.8162 35.1838 3.75 24 3.75C12.8162 3.75 3.75 12.8162 3.75 24C3.75 35.1838 12.8162 44.25 24 44.25Z" fill="#FF3D00" stroke="url(#paint0_linear_695_2361)" stroke-width="0.5"/>
<path d="M24.5731 15.678C23.8896 16.4886 23.0644 17.1721 22.0976 17.7288C21.1308 18.2757 20.0321 18.6907 18.8017 18.9739V17.5823C19.9833 17.3284 21.0624 16.9036 22.039 16.3079C23.0253 15.7122 23.8944 14.9602 24.6464 14.052H25.8915V34.7649H24.5731V15.678Z" fill="#FF3D00"/>
<path fill-rule="evenodd" clip-rule="evenodd" d="M18.8017 17.5823C19.9833 17.3284 21.0624 16.9036 22.039 16.3079C23.0253 15.7122 23.8944 14.9602 24.6464 14.052H25.8915V34.7649H24.5731V15.678C24.384 15.9023 24.184 16.1169 23.9731 16.3217C23.422 16.8571 22.7968 17.3262 22.0976 17.7288C21.2907 18.1852 20.3921 18.5497 19.4017 18.8225C19.2053 18.8766 19.0053 18.927 18.8017 18.9739V17.5823ZM23.9731 17.1348C23.493 17.5491 22.9673 17.9204 22.3969 18.2488L22.393 18.251C21.3695 18.83 20.2155 19.2642 18.9362 19.5586C18.7581 19.5996 18.571 19.5572 18.428 19.4433C18.285 19.3295 18.2017 19.1567 18.2017 18.9739V17.5823C18.2017 17.2995 18.3991 17.0551 18.6756 16.9957C19.7951 16.7551 20.8107 16.3543 21.7265 15.7957L21.7288 15.7943C22.6561 15.2342 23.4742 14.5269 24.1842 13.6694C24.2982 13.5317 24.4677 13.452 24.6464 13.452H25.8915C26.2229 13.452 26.4915 13.7207 26.4915 14.052V34.7649C26.4915 35.0963 26.2229 35.3649 25.8915 35.3649H24.5731C24.2418 35.3649 23.9731 35.0963 23.9731 34.7649V17.1348Z" fill="#FF3D00"/>
<defs>
<linearGradient id="paint0_linear_695_2361" x1="6" y1="10.7857" x2="43.7333" y2="13.5535" gradientUnits="userSpaceOnUse">
<stop stop-color="#FF3D00"/>
<stop offset="1" stop-color="#FF3C3C"/>
</linearGradient>
</defs>
</svg>
