<svg width="10" height="10" viewBox="0 0 10 10" fill="none" xmlns="http://www.w3.org/2000/svg">
<path d="M4.04603 6.18877C4.04603 6.07371 3.95276 5.98043 3.8377 5.98043H1.04183C0.92677 5.98043 0.833496 5.88716 0.833496 5.7721V4.27175C0.833496 4.15669 0.92677 4.06342 1.04183 4.06342H3.8377C3.95276 4.06342 4.04603 3.97014 4.04603 3.85508V1.04171C4.04603 0.926648 4.13931 0.833374 4.25436 0.833374H5.75472C5.86977 0.833374 5.96305 0.926648 5.96305 1.04171V3.85508C5.96305 3.97014 6.05632 4.06342 6.17138 4.06342H8.9585C9.07356 4.06342 9.16683 4.15669 9.16683 4.27175V5.7721C9.16683 5.88716 9.07356 5.98043 8.9585 5.98043H6.17138C6.05632 5.98043 5.96305 6.07371 5.96305 6.18877V8.95837C5.96305 9.07343 5.86977 9.16671 5.75471 9.16671H4.25436C4.13931 9.16671 4.04603 9.07343 4.04603 8.95837V6.18877Z" fill="white"/>
</svg>
