<svg width="104" height="104" viewBox="0 0 104 104" fill="none" xmlns="http://www.w3.org/2000/svg">
<path d="M92.9165 52C92.9165 74.5976 74.5975 92.9167 51.9998 92.9167C29.4022 92.9167 11.0832 74.5976 11.0832 52C11.0832 29.4023 29.4022 11.0833 51.9998 11.0833C74.5975 11.0833 92.9165 29.4023 92.9165 52ZM51.9998 95.5833C76.0702 95.5833 95.5832 76.0704 95.5832 52C95.5832 27.9296 76.0702 8.41666 51.9998 8.41666C27.9294 8.41666 8.4165 27.9296 8.4165 52C8.4165 76.0704 27.9294 95.5833 51.9998 95.5833Z" fill="url(#paint0_linear_630_604)" stroke="url(#paint1_linear_630_604)" stroke-width="0.5"/>
<path fill-rule="evenodd" clip-rule="evenodd" d="M51.315 28.8867C51.7597 28.7308 52.2406 28.7308 52.6853 28.8867L72.1853 35.721C73.0701 36.0311 73.6668 36.9016 73.6668 37.8822V53.8289C73.6668 61.7955 68.0433 68.0848 63.0804 72.1434C60.5305 74.2287 57.993 75.8578 56.0993 76.964C55.1498 77.5186 54.3559 77.9454 53.7947 78.2358C53.5139 78.381 53.2909 78.4924 53.1354 78.5687L52.9537 78.6568L52.903 78.681L52.888 78.688L52.8832 78.6903L52.8814 78.6911C52.8807 78.6915 52.8801 78.6917 52.0002 76.61C51.1202 78.6917 51.1196 78.6915 51.1189 78.6911L51.1171 78.6903L51.1123 78.688L51.0973 78.681L51.0466 78.6568L50.8649 78.5687C50.7094 78.4924 50.4864 78.381 50.2057 78.2358C49.6444 77.9454 48.8505 77.5186 47.9011 76.964C46.0073 75.8578 43.4698 74.2287 40.92 72.1434C35.957 68.0848 30.3335 61.7955 30.3335 53.8289V37.8822C30.3335 36.9016 30.9303 36.0311 31.815 35.721L51.315 28.8867ZM52.0002 76.61L51.1202 78.6917C51.6804 78.9535 52.3199 78.9535 52.8801 78.6917L52.0002 76.61ZM52.0002 74.086C52.4981 73.8262 53.1827 73.4555 53.9948 72.9812C55.7573 71.9516 58.0948 70.4484 60.42 68.547C65.207 64.6322 69.3335 59.531 69.3335 53.8289V39.5242L52.0002 33.4492L34.6668 39.5242V53.8289C34.6668 59.531 38.7933 64.6322 43.5804 68.547C45.9055 70.4484 48.243 71.9516 50.0055 72.9812C50.8176 73.4555 51.5022 73.8262 52.0002 74.086Z" fill="url(#paint2_linear_630_604)"/>
<defs>
<linearGradient id="paint0_linear_630_604" x1="12.9998" y1="23.3691" x2="94.7553" y2="29.366" gradientUnits="userSpaceOnUse">
<stop stop-color="#FF3D00"/>
<stop offset="1" stop-color="#FF3C3C"/>
</linearGradient>
<linearGradient id="paint1_linear_630_604" x1="12.9998" y1="23.3691" x2="94.7553" y2="29.366" gradientUnits="userSpaceOnUse">
<stop stop-color="#FF3D00"/>
<stop offset="1" stop-color="#FF3C3C"/>
</linearGradient>
<linearGradient id="paint2_linear_630_604" x1="32.5002" y1="37.272" x2="73.4332" y2="39.868" gradientUnits="userSpaceOnUse">
<stop stop-color="#FF3D00"/>
<stop offset="1" stop-color="#FF3C3C"/>
</linearGradient>
</defs>
</svg>
