<svg width="104" height="104" viewBox="0 0 104 104" fill="none" xmlns="http://www.w3.org/2000/svg">
<path d="M92.9165 52C92.9165 74.5976 74.5975 92.9167 51.9998 92.9167C29.4022 92.9167 11.0832 74.5976 11.0832 52C11.0832 29.4023 29.4022 11.0833 51.9998 11.0833C74.5975 11.0833 92.9165 29.4023 92.9165 52ZM51.9998 95.5833C76.0702 95.5833 95.5832 76.0704 95.5832 52C95.5832 27.9296 76.0702 8.41666 51.9998 8.41666C27.9294 8.41666 8.4165 27.9296 8.4165 52C8.4165 76.0704 27.9294 95.5833 51.9998 95.5833Z" fill="url(#paint0_linear_630_445)" stroke="url(#paint1_linear_630_445)" stroke-width="0.5"/>
<path fill-rule="evenodd" clip-rule="evenodd" d="M34.5377 58.7035C36.6941 56.5471 39.6188 55.3357 42.6684 55.3357H61.3319C64.3815 55.3357 67.3062 56.5471 69.4625 58.7035C71.6189 60.8599 72.8304 63.7846 72.8304 66.8341V71.5C72.8304 72.6966 71.8603 73.6667 70.6637 73.6667C69.4671 73.6667 68.497 72.6966 68.497 71.5V66.8341C68.497 64.9338 67.7421 63.1114 66.3984 61.7676C65.0547 60.4239 63.2322 59.669 61.3319 59.669H42.6684C40.7681 59.669 38.9456 60.4239 37.6019 61.7676C36.2581 63.1114 35.5033 64.9338 35.5033 66.8341V71.5C35.5033 72.6966 34.5332 73.6667 33.3366 73.6667C32.14 73.6667 31.1699 72.6966 31.1699 71.5V66.8341C31.1699 63.7846 32.3814 60.8599 34.5377 58.7035Z" fill="url(#paint2_linear_630_445)"/>
<path fill-rule="evenodd" clip-rule="evenodd" d="M52.0004 31.6737C48.0432 31.6737 44.8353 34.8817 44.8353 38.8389C44.8353 42.796 48.0432 46.004 52.0004 46.004C55.9576 46.004 59.1655 42.796 59.1655 38.8389C59.1655 34.8817 55.9576 31.6737 52.0004 31.6737ZM40.502 38.8389C40.502 32.4884 45.65 27.3404 52.0004 27.3404C58.3508 27.3404 63.4988 32.4884 63.4988 38.8389C63.4988 45.1893 58.3508 50.3373 52.0004 50.3373C45.65 50.3373 40.502 45.1893 40.502 38.8389Z" fill="url(#paint3_linear_630_445)"/>
<defs>
<linearGradient id="paint0_linear_630_445" x1="12.9998" y1="23.3691" x2="94.7553" y2="29.366" gradientUnits="userSpaceOnUse">
<stop stop-color="#FF3D00"/>
<stop offset="1" stop-color="#FF3C3C"/>
</linearGradient>
<linearGradient id="paint1_linear_630_445" x1="12.9998" y1="23.3691" x2="94.7553" y2="29.366" gradientUnits="userSpaceOnUse">
<stop stop-color="#FF3D00"/>
<stop offset="1" stop-color="#FF3C3C"/>
</linearGradient>
<linearGradient id="paint2_linear_630_445" x1="33.2529" y1="58.4454" x2="71.6957" y2="64.854" gradientUnits="userSpaceOnUse">
<stop stop-color="#FF3D00"/>
<stop offset="1" stop-color="#FF3C3C"/>
</linearGradient>
<linearGradient id="paint3_linear_630_445" x1="41.6518" y1="31.2417" x2="63.3455" y2="32.8329" gradientUnits="userSpaceOnUse">
<stop stop-color="#FF3D00"/>
<stop offset="1" stop-color="#FF3C3C"/>
</linearGradient>
</defs>
</svg>
