<svg width="22" height="22" viewBox="0 0 22 22" fill="none" xmlns="http://www.w3.org/2000/svg">
<path d="M11 21.5C16.799 21.5 21.5 16.799 21.5 11C21.5 5.20101 16.799 0.5 11 0.5C5.20101 0.5 0.5 5.20101 0.5 11C0.5 16.799 5.20101 21.5 11 21.5Z" fill="#1F1F22" stroke="url(#paint0_linear_789_1294)"/>
<path fill-rule="evenodd" clip-rule="evenodd" d="M14.905 15.5558C15.8359 14.758 16.5 13.6942 16.808 12.5076C17.116 11.3209 17.0531 10.0684 16.6278 8.91858C16.2024 7.76875 15.4351 6.77682 14.429 6.07626C13.4229 5.3757 12.2264 5.00015 11.0004 5.00015C9.77446 5.00015 8.57791 5.3757 7.57182 6.07626C6.56574 6.77682 5.7984 7.76875 5.37307 8.91858C4.94775 10.0684 4.88486 11.3209 5.19286 12.5076C5.50087 13.6942 6.16499 14.758 7.09584 15.5558L5.79334 17.0742C4.91632 16.3238 4.21243 15.3922 3.7302 14.3436C3.24796 13.2949 2.99884 12.1542 3 11C3 8.87827 3.84286 6.84344 5.34315 5.34315C6.84344 3.84285 8.87827 3 11 3C12.0506 3 13.0909 3.20693 14.0615 3.60896C15.0321 4.011 15.914 4.60028 16.6569 5.34315C17.3997 6.08601 17.989 6.96793 18.391 7.93853C18.7931 8.90914 19 9.94943 19 11C19.0013 12.1543 18.7522 13.2952 18.27 14.344C17.7877 15.3928 17.0838 16.3246 16.2067 17.075L14.905 15.5558Z" fill="#CDCDCD" fill-opacity="0.1"/>
<path fill-rule="evenodd" clip-rule="evenodd" d="M16.4308 13.555C16.9068 12.5434 17.0907 11.4189 16.9617 10.3083C16.8328 9.19777 16.3961 8.14534 15.7009 7.26973C15.0057 6.39412 14.0797 5.73016 13.0273 5.35273C11.9749 4.9753 10.838 4.89942 9.74484 5.13364C8.65163 5.36785 7.64561 5.90285 6.84022 6.67831C6.03485 7.45376 5.46215 8.43881 5.18672 9.52237C4.91129 10.6059 4.94409 11.7449 5.28141 12.8108C5.61874 13.8767 6.24717 14.8272 7.09584 15.555L5.79251 17.075C4.91553 16.3245 4.21174 15.3927 3.72964 14.3439C3.24755 13.2951 2.99862 12.1543 3.00001 11C3.00001 8.87827 3.84286 6.84344 5.34315 5.34315C6.84344 3.84285 8.87827 3 11 3C12.0506 3 13.0909 3.20693 14.0615 3.60896C15.0321 4.011 15.914 4.60028 16.6569 5.34315C17.3997 6.08601 17.989 6.96793 18.391 7.93853C18.7931 8.90914 19 9.94943 19 11C19.0022 12.1779 18.7432 13.3417 18.2417 14.4075L16.4308 13.555Z" fill="#FF6309"/>
<path d="M10.8664 13.0701C10.4664 13.0701 10.0339 13.0467 9.57224 13.0001V12.2717C10.1697 12.3376 10.5964 12.3701 10.8531 12.3701C11.0914 12.3701 11.2639 12.3534 11.3714 12.3209C11.4781 12.2876 11.5481 12.2276 11.5814 12.1392C11.6181 12.0501 11.6372 11.9101 11.6372 11.7192V11.2917H10.8814C10.6289 11.2917 10.4472 11.2892 10.3347 11.2851C10.2071 11.2728 10.0808 11.2494 9.95724 11.2151C9.83588 11.1895 9.72277 11.1343 9.62807 11.0542C9.54187 10.9663 9.47514 10.8613 9.43224 10.7459C9.37788 10.5884 9.35165 10.4225 9.35474 10.2559V9.63922C9.35474 9.42505 9.38807 9.23922 9.45307 9.08005C9.51807 8.91672 9.60307 8.78839 9.70474 8.69505C9.79807 8.61589 9.91974 8.55005 10.0689 8.49922C10.2231 8.44755 10.3747 8.41505 10.5239 8.40088C10.7014 8.39172 10.8622 8.38672 11.0072 8.38672C11.2264 8.38672 11.3989 8.39422 11.5247 8.40755C11.6556 8.41755 11.7931 8.44505 11.9381 8.49172C12.0784 8.5329 12.2072 8.60624 12.3143 8.70591C12.4213 8.80558 12.5037 8.92883 12.5547 9.06589C12.6225 9.2496 12.6555 9.44428 12.6522 9.64005V11.7542C12.6522 12.2251 12.5097 12.5634 12.2247 12.7692C11.9447 12.9692 11.4922 13.0692 10.8664 13.0692V13.0701ZM11.6372 10.6126V9.55005C11.6372 9.39172 11.6231 9.28172 11.5956 9.22088C11.5714 9.16005 11.5181 9.12089 11.4339 9.10172C11.2882 9.078 11.1406 9.06851 10.9931 9.07338C10.8522 9.06817 10.7112 9.07992 10.5731 9.10838C10.5379 9.11461 10.5048 9.12942 10.4767 9.15152C10.4487 9.17362 10.4265 9.20232 10.4122 9.23505C10.3839 9.29505 10.3706 9.40005 10.3706 9.55005V10.2426C10.3706 10.3551 10.3839 10.4367 10.4122 10.4876C10.4397 10.5342 10.4956 10.5667 10.5797 10.5859C10.7186 10.6082 10.8592 10.6174 10.9997 10.6134H11.6372V10.6126Z" fill="#FF6309"/>
<defs>
<linearGradient id="paint0_linear_789_1294" x1="2" y1="4.39286" x2="20.8667" y2="5.77677" gradientUnits="userSpaceOnUse">
<stop stop-color="#FF3D00"/>
<stop offset="1" stop-color="#FF3C3C"/>
</linearGradient>
</defs>
</svg>
