<svg width="22" height="22" viewBox="0 0 22 22" fill="none" xmlns="http://www.w3.org/2000/svg">
<path d="M11 21.5C16.799 21.5 21.5 16.799 21.5 11C21.5 5.20101 16.799 0.5 11 0.5C5.20101 0.5 0.5 5.20101 0.5 11C0.5 16.799 5.20101 21.5 11 21.5Z" fill="#1F1F22" stroke="url(#paint0_linear_789_1234)"/>
<path fill-rule="evenodd" clip-rule="evenodd" d="M14.9042 15.5558C15.835 14.758 16.4991 13.6942 16.8071 12.5076C17.1152 11.3209 17.0523 10.0684 16.6269 8.91858C16.2016 7.76875 15.4343 6.77682 14.4282 6.07626C13.4221 5.3757 12.2256 5.00015 10.9996 5.00015C9.77362 5.00015 8.57708 5.3757 7.57099 6.07626C6.5649 6.77682 5.79756 7.76875 5.37224 8.91858C4.94692 10.0684 4.88403 11.3209 5.19203 12.5076C5.50004 13.6942 6.16415 14.758 7.095 15.5558L5.7925 17.0742C4.91564 16.3237 4.21191 15.3921 3.72982 14.3435C3.24773 13.2948 2.99874 12.1541 3 11C3 8.87827 3.84286 6.84344 5.34315 5.34315C6.84344 3.84285 8.87827 3 11 3C12.0506 3 13.0909 3.20693 14.0615 3.60896C15.0321 4.011 15.914 4.60028 16.6569 5.34315C17.3997 6.08601 17.989 6.96793 18.391 7.93853C18.7931 8.90914 19 9.94943 19 11C19.0013 12.1543 18.7522 13.2952 18.27 14.344C17.7877 15.3928 17.0838 16.3246 16.2067 17.075L14.9042 15.5558Z" fill="#CDCDCD" fill-opacity="0.1"/>
<path fill-rule="evenodd" clip-rule="evenodd" d="M5.91151 14.1799L4.21484 15.2416C4.64556 15.9288 5.17769 16.5468 5.79318 17.0749L7.09484 15.5566C6.63305 15.1608 6.23405 14.6972 5.91151 14.1816V14.1799Z" fill="#EEEEEE"/>
<path d="M10.8046 9.52762L9.56543 10.2143V9.35262L11.0004 8.45679H11.8263V13.0001H10.8046V9.52762Z" fill="#EEEEEE"/>
<defs>
<linearGradient id="paint0_linear_789_1234" x1="2" y1="4.39286" x2="20.8667" y2="5.77677" gradientUnits="userSpaceOnUse">
<stop stop-color="#FF3D00"/>
<stop offset="1" stop-color="#FF3C3C"/>
</linearGradient>
</defs>
</svg>
